<?xml version="1.0" encoding="UTF-8" standalone="no"?>
<!-- Created with Inkscape (http://www.inkscape.org/) -->

<svg
   width="100mm"
   height="60mm"
   viewBox="0 0 100 60"
   version="1.1"
   id="svg1"
   sodipodi:docname="Feedback system.svg"
   inkscape:version="1.4 (e7c3feb1, 2024-10-09)"
   xmlns:inkscape="http://www.inkscape.org/namespaces/inkscape"
   xmlns:sodipodi="http://sodipodi.sourceforge.net/DTD/sodipodi-0.dtd"
   xmlns="http://www.w3.org/2000/svg"
   xmlns:svg="http://www.w3.org/2000/svg">
  <sodipodi:namedview
     id="namedview1"
     pagecolor="#505050"
     bordercolor="#ffffff"
     borderopacity="1"
     inkscape:showpageshadow="0"
     inkscape:pageopacity="0"
     inkscape:pagecheckerboard="1"
     inkscape:deskcolor="#505050"
     inkscape:document-units="mm"
     showguides="true"
     inkscape:zoom="2.0768027"
     inkscape:cx="180.32526"
     inkscape:cy="129.76678"
     inkscape:window-width="1512"
     inkscape:window-height="816"
     inkscape:window-x="0"
     inkscape:window-y="38"
     inkscape:window-maximized="0"
     inkscape:current-layer="layer1" />
  <defs
     id="defs1" />
  <g
     inkscape:label="Lag 1"
     inkscape:groupmode="layer"
     id="layer1">
    <path
       id="path30"
       d="m 42.672852,40.481056 -2.373047,1.75 0.59375,0.804688 0.779297,-0.574219 v 1.923828 h 1 z m -4.701172,1.453125 v 1 h 1.751953 v -1 z m -4.503906,1.173828 v 1 h 2.074219 l -2.851563,3.375 h 3.853516 v -1 h -1.699219 l 2.851562,-3.375 z m 30.058594,-6.332031 c -0.0081,1.28838 0.548431,2.028001 1.154296,2.28711 0.605866,0.259108 1.177735,0.101562 1.177735,0.101562 l -0.240235,-0.970703 c 0,0 -0.291157,0.05774 -0.544921,-0.05078 -0.253765,-0.108527 -0.553407,-0.317583 -0.546875,-1.359375 z m -0.605469,-2.824219 c -1.218192,0.273685 -2.484422,1.55722 -3.207031,3.615235 -0.186298,0.530582 -0.260163,0.978825 -0.212891,1.380859 0.04727,0.402035 0.248608,0.763155 0.548828,0.972656 0.600439,0.419004 1.351096,0.298381 2.050781,0.03711 0.699685,-0.261271 1.388329,-0.71003 1.882813,-1.279297 0.494484,-0.569267 0.819418,-1.347432 0.503906,-2.09375 l 0.01758,0.339844 c 0.296589,-0.976908 0.324209,-1.733094 0.02148,-2.308594 -0.302725,-0.5755 -0.996373,-0.800905 -1.605469,-0.664063 z m 0.21875,0.97461 c 0.318895,-0.07164 0.400781,-0.03608 0.501953,0.15625 0.101172,0.192335 0.161806,0.710982 -0.09375,1.552734 l -0.05273,0.171875 0.07031,0.167969 c 0.12355,0.292248 0.01794,0.637236 -0.337891,1.046875 -0.355825,0.409639 -0.936359,0.796329 -1.476562,0.998047 -0.540203,0.201718 -0.999673,0.170261 -1.128906,0.08008 -0.06462,-0.04509 -0.107607,-0.08838 -0.128907,-0.269531 -0.0213,-0.181151 0.01019,-0.493414 0.164063,-0.931641 0.638062,-1.81722 1.844632,-2.829367 2.482422,-2.972656 z m 2.591797,4.183594 -12.814453,4.720703 12.822265,4.910156 z m -2.996094,4.302734 v 0.964844 L 61.450196,43.885353 Z M 46.600586,42.434181 v 3 h 27.917969 v -3 z M 30.014649,37.481056 V 50.686134 H 49.528321 V 37.481056 Z m 3,3 h 13.513672 v 7.205078 H 33.014649 Z M 71.516602,21.344338 v 22.964843 h 3 V 21.344338 Z m -50.28125,5.177734 v 19.287109 h 9.080078 v -3 H 24.235352 V 26.522072 Z m 65.757812,-22.2720712 -0.707031,0.707031 3.773438,3.7734371 0.707031,-0.707031 z m 6.839844,0.396484 -7.347656,7.3476552 0.707031,0.707032 7.347656,-7.3476562 z M 9.8291016,3.2558598 2.381836,10.703125 3.0888672,11.410156 10.536133,3.9628908 Z M 3.7841797,4.0507818 3.0771485,4.7578128 9.7294922,11.410156 10.436523,10.703125 Z M 22.12793,13.738281 v 8.9375 h 1 v -8.9375 z m -2.810547,4.068359 v 1 h 6.951172 v -1 z m 17.242188,38.9375 H 62.051758 Z M 21.393555,26.845703 h 3 z m 50.042969,-9.134766 h 3 z M 73.135743,15.8125 c -1.049087,0 -2.020399,0.245223 -2.833985,0.748047 -0.813585,0.502823 -1.558593,1.389675 -1.558594,2.539062 0,1.149387 0.745009,2.038192 1.558594,2.541016 0.813586,0.502824 1.784897,0.746093 2.833985,0.746093 1.049087,1e-6 2.020398,-0.243269 2.833984,-0.746093 0.813586,-0.502824 1.558594,-1.391629 1.558594,-2.541016 -1e-6,-1.149387 -0.745008,-2.036239 -1.558594,-2.539062 C 75.156141,16.057723 74.18483,15.8125 73.135743,15.8125 Z m 0,3 c 0.524954,0 0.960605,0.1485 1.203125,0.287109 -0.242454,0.138656 -0.677986,0.28711 -1.203125,0.287109 -0.52514,0 -0.960672,-0.148454 -1.203125,-0.287109 C 72.175137,18.961 72.610788,18.8125 73.135743,18.8125 Z M 23.19043,9.4589849 c -5.142925,0 -9.34375,4.2008241 -9.34375,9.3437491 0,5.142925 4.200825,9.34375 9.34375,9.34375 5.142925,10e-7 9.34375,-4.200825 9.34375,-9.34375 0,-5.142925 -4.200825,-9.3437491 -9.34375,-9.3437491 z m 0,2.9999991 c 3.521605,0 6.34375,2.822145 6.34375,6.34375 0,3.521605 -2.822145,6.34375 -6.34375,6.34375 -3.521604,0 -6.34375,-2.822145 -6.34375,-6.34375 0,-3.521604 2.822146,-6.34375 6.34375,-6.34375 z m 9.630859,4.943359 v 3 h 65.734375 v -3 z M 1.444336,17.998047 v 3 h 12.710938 v -3 z" />
  </g>
</svg>
