<?xml version="1.0" encoding="UTF-8" standalone="no"?>
<!-- Created with Inkscape (http://www.inkscape.org/) -->

<svg
   width="2048mm"
   height="1152mm"
   viewBox="0 0 2048 1152"
   version="1.1"
   id="svg1"
   xml:space="preserve"
   inkscape:version="1.4 (e7c3feb1, 2024-10-09)"
   sodipodi:docname="Opgave 2.50.svg"
   xmlns:inkscape="http://www.inkscape.org/namespaces/inkscape"
   xmlns:sodipodi="http://sodipodi.sourceforge.net/DTD/sodipodi-0.dtd"
   xmlns="http://www.w3.org/2000/svg"
   xmlns:svg="http://www.w3.org/2000/svg"><sodipodi:namedview
     id="namedview1"
     pagecolor="#505050"
     bordercolor="#ffffff"
     borderopacity="1"
     inkscape:showpageshadow="0"
     inkscape:pageopacity="0"
     inkscape:pagecheckerboard="1"
     inkscape:deskcolor="#505050"
     inkscape:document-units="mm"
     inkscape:zoom="0.097338791"
     inkscape:cx="3698.4228"
     inkscape:cy="2578.6225"
     inkscape:window-width="1512"
     inkscape:window-height="813"
     inkscape:window-x="0"
     inkscape:window-y="38"
     inkscape:window-maximized="1"
     inkscape:current-layer="layer1" /><defs
     id="defs1" /><g
     inkscape:label="Lag 1"
     inkscape:groupmode="layer"
     id="layer1"><path
       style="fill:#da9c5e;stroke:none;stroke-width:1.11777"
       d="m 172.58718,48.467811 c -20.00837,1.722034 -62.73887,35.683714 -77.765946,47.123868 -5.187438,3.949248 -21.015925,15.748191 -8.679276,20.865171 14.623082,6.06516 38.656082,-33.970412 55.199992,-31.368679 l -2.08305,-2.554974 13.53962,-5.109837 1.04154,-4.258102 3.12446,0.85162 c 1.44255,-4.074691 5.61981,-5.702868 10.41515,-4.258216 -0.1386,-3.512226 3.40057,-5.291775 7.29057,-5.961456 -2.10412,-17.778399 29.38025,15.70188 31.24524,16.181129 l -1.04152,1.703241 6.24904,2.554975 -1.04153,1.703241 c 45.06616,12.283397 -2.05259,-4.357621 2.08306,-17.884371 -7.16256,-1.12e-4 -15.81115,-15.533639 -17.70562,-20.439345 l 3.12447,-0.85162 3.12459,-2.554861 6.24903,-5.109837 8.33199,-10.219672 6.24906,-0.85162 2.08305,-11.922914 -14.58114,4.258215 1.04151,1.703242 -3.12447,0.851621 2.08296,2.554974 C 201.11727,26.21382 192.3485,31.860644 190.29281,38.248138 181.3116,35.542472 148.23458,-9.3603018 135.44008,1.7696377 128.02426,8.2205325 169.8526,39.02662 172.58718,48.467811 m 52.07545,-28.955663 -2.08305,1.70324 v -1.70324 h 2.08305 m -3.12458,5.109723 -1.04153,0.851733 1.04153,-0.851733 m -15.62257,4.258215 -1.04152,0.85162 1.04152,-0.85162 m 158.30921,28.104043 1.04154,1.70324 c -19.94703,1.716827 -57.28571,41.719561 -53.11696,57.911341 l -2.08293,-0.85162 -1.04154,9.36805 c -8.3503,2.78164 0.63454,25.49982 -8.33209,29.38147 -23.67624,10.24934 -101.39529,12.60517 -127.06399,8.23237 -12.86789,-2.192 -38.71503,-3.52163 -29.1623,10.92944 l 13.53963,-0.85163 -1.04153,1.70325 16.6642,-0.85162 v -0.85163 l -4.16611,-0.85162 v -0.85173 l 6.24905,0.85173 v -0.85173 h -3.12448 v -0.85162 l 4.166,-1.70324 c 0.20372,6.32817 21.40879,6.42666 28.12078,4.82589 23.36183,-5.57165 74.875,-8.96931 98.94332,-4.82589 -8.53547,20.93818 17.25217,51.73939 32.28676,68.131 5.19482,5.66369 30.11454,17.32439 29.16219,20.43923 l 16.66419,6.81307 65.61493,11.92291 -4.16599,13.62628 2.08305,19.5876 c -6.53862,0.61104 -6.17864,9.71779 -4.1661,13.62615 -8.78809,2.9277 -12.66097,50.02767 -7.29047,56.20809 -15.88355,2.59755 -5.42348,56.91422 -8.33209,66.42765 6.72798,0.1448 41.34764,3.42233 43.74332,-0.85162 l 3.12458,1.70324 1.04141,-2.55486 3.12459,2.55486 21.87171,-0.85162 23.95467,2.55498 2.08305,-2.55498 -1.04154,1.70324 h 1.04154 l 41.66026,-0.85162 4.1661,-5.10984 -2.08304,0.85174 v -0.85174 l 4.16599,-1.70324 v -4.25822 l 21.87172,-8.51631 v -2.55486 c 4.95613,1.38645 8.9151,-1.40559 12.49809,-4.25821 l 12.4981,-1.70325 5.20752,-5.96146 c 2.62753,0.50881 4.68522,0.67409 4.1661,-1.70335 25.05677,3.23518 111.57297,-27.76586 131.22998,-40.87857 0,18.93015 -12.83832,52.89783 -5.20752,69.83423 -2.4267,0.72753 -7.59581,4.67598 -4.166,5.96146 v 0.85162 c -6.01763,0 -3.70736,4.67395 -1.04152,5.10983 v 4.25822 c -5.04133,0 -36.35057,-0.85841 -24.99619,-11.07129 v -0.85162 c -1.59463,-1.95583 -0.64492,-8.22241 2.08295,-7.6647 l -12.4981,-17.88437 c -4.2002,-2.06078 -33.50806,-12.03976 -35.41122,-4.25821 -19.95133,-4.29321 -32.0015,28.5577 -19.4415,39.03335 13.59534,11.33906 37.67515,-0.38268 51.72825,3.54846 -4.55885,17.24005 63.37672,1.95482 34.36981,36.62036 v 0.85162 l 2.08295,0.85174 -4.166,26.40068 2.08305,2.55498 -4.1661,1.70324 -13.53963,-5.10984 c -8.20354,0.64919 -11.63324,-10.95117 -20.83018,-9.36805 -3.35832,-17.02652 -108.00399,-58.88262 -128.10552,-61.3178 -19.56507,20.36145 82.86799,46.9358 99.98487,57.62748 4.18199,2.61216 24.99629,12.11833 24.99618,14.76161 l 10.41504,2.55498 c -2.16957,5.32212 11.27834,4.84106 10.41515,7.66469 l 2.08295,0.85162 15.62267,3.4066 v -2.55498 l 4.16599,-0.85162 c 7.94365,2.16517 17.09745,-24.45629 10.41515,-25.54906 v -1.70336 h 2.08294 c -2.33366,-14.50256 15.33763,-36.1325 10.41515,-48.54327 l 1.04152,-2.55486 c 32.10237,-6.90807 92.12012,-5.6928 102.0678,13.62616 l -7.29057,58.76294 c 12.60061,5.42288 22.25377,-1.30777 17.70562,-12.77454 6.68836,-2.22822 6.86692,-51.01163 1.04152,-54.50472 4.53115,-3.33471 4.29036,-11.89427 2.08306,-16.18113 5.81512,-1.93727 2.59498,-18.82803 3.9924,-23.562 6.9935,-23.69117 13.91935,-51.48816 14.75472,-76.07953 0.17768,-5.22984 12.70347,-24.40817 4.16601,-27.25242 l 2.08305,-17.03275 h -2.08305 l 1.04152,-11.92291 -4.16599,-0.85162 h -1.04154 -1.04151 l -3.12447,0.85162 h -1.04153 l 1.04153,5.96145 -2.08305,5.96146 4.16599,0.85173 v 0.85162 l -4.16599,-0.85162 c 2.50824,37.93878 -41.79005,99.92151 -23.95466,134.55853 l -1.04153,3.4066 -3.12458,4.25822 c -13.68308,-7.94989 -81.76179,-4.9185 -98.94321,-0.85162 -7.81277,-18.67418 21.90172,-64.13205 2.77729,-79.77009 -11.52135,-9.42091 -39.10391,3.8983 -51.38108,5.10984 -41.45799,4.09124 -91.04525,29.15867 -127.41115,44.85296 -13.89364,5.99587 -36.48288,10.43921 -41.66039,23.84583 l -19.78866,-1.70336 h -1.04153 l -15.62255,4.25822 h -1.04154 c -1.64924,-3.43275 -5.99875,-3.3056 -9.37362,-1.70324 0.0839,-0.37283 -59.17034,-3.0314 -65.61504,0.85162 l -6.24906,-11.92291 3.12459,-5.96145 c -2.16527,-6.11623 -2.39702,-17.09662 3.12447,-22.14259 l 1.04153,-17.88437 c 3.54458,-0.34101 10.31604,-39.76792 6.24904,-42.58182 v -0.85162 c 8.53515,-4.51601 15.08988,-47.25997 12.49809,-56.20809 8.80596,-2.26299 8.20277,-7.10438 19.78867,-5.10984 v -1.70324 c 3.95554,1.3619 17.11587,0.69245 17.70572,-3.4066 16.9743,2.55679 28.99753,-10.5781 42.7018,-16.181 -1.1e-4,-3.48688 4.95382,-2.55498 8.3321,-2.55498 l 4.16599,-7.6647 9.37362,-3.40659 c -0.8974,-8.55979 19.26041,-21.88355 23.43391,-30.6589 7.74346,-16.28179 10.01731,-34.49052 9.72068,-51.94987 -0.71939,-42.35392 -49.53506,-64.388053 -62.31687,-100.493161 -16.47362,-3.4e-4 -36.35796,-15.287845 -55.19989,-16.18113 -45.21756,-2.143656 -72.84758,6.039917 -114.56601,16.18113 m 154.14334,7.664698 c -10.10937,18.737574 37.51789,40.962593 51.72825,58.762963 30.43589,38.12513 0.32334,98.42477 -41.31322,122.06805 -14.50621,8.23735 -42.60004,22.7946 -60.40751,15.89718 l -2.08294,1.70324 C 466.29249,273.68192 380.9742,252.63631 369.43233,243.35068 320.44011,203.93645 325.6613,175.99975 319.43985,127.67 c 4.17471,-2.71087 9.30598,-16.11615 8.3321,-20.43923 3.28217,-1.64007 3.07448,-2.31734 2.08305,-5.10984 l 7.29057,-2.554983 -2.08305,-1.703242 v -0.851621 h 4.16599 l -1.04152,-3.406594 h 3.12457 l 6.24905,-10.219673 C 410.75139,52.382412 445.182,47.326354 518.36803,64.648827 m -300.99598,22.142585 -1.04152,0.85162 1.04152,-0.85162 m 1043.59145,23.845828 -5.2076,0.85162 v 1.70336 l -34.3697,-1.70336 -6.249,2.55499 -3.1245,-2.55499 v -0.85162 l -6.2491,-0.85162 1.0415,1.70324 h -1.0415 c -59.3637,-21.716097 -151.599,11.97851 -208.30166,5.10985 -5.77312,5.57878 -28.11365,-2.37122 -34.36982,2.55497 -2.03667,-3.63337 -38.10304,0 -44.7849,0 -45.88343,0 -95.669,7.14628 -140.60361,1.70324 l -21.87171,4.25822 c -2.65038,-2.08693 -14.23452,-4.38615 -15.62267,-1.70335 -22.74153,-7.82999 -73.18757,-1.4108 -98.94322,-1.70324 -6.57889,-0.0747 -31.60289,-2.15702 -27.94717,7.6647 3.46447,9.30793 64.33592,3.76255 75.85649,4.25821 v -0.85162 l -2.08294,-0.85162 5.20752,-0.85162 -1.04152,2.55486 26.03771,-0.85162 v -0.85162 h -3.12458 v -0.85162 h 13.53961 l -3.12446,1.70324 v 0.85162 h 5.20752 l 7.29058,-1.70324 v 2.55486 c 4.90338,-1.16071 13.41845,0.32946 15.62255,-4.25821 h 1.04153 c 1.32436,10.2876 90.04908,0.51026 103.10932,1.84521 114.95313,11.74958 236.78443,-27.7807 347.86383,-8.65829 l -1.0415,-1.70324 h 1.0415 c 7.3138,2.04583 77.4002,3.5215 79.1547,0 54.8047,11.79271 134.52,-15.79099 185.3885,3.40659 19.173,7.23572 20.6679,27.21574 35.7584,38.03965 6.3402,4.54771 24.9317,6.16152 28.2943,11.35525 13.8171,21.34088 -14.2707,49.13018 -4.6868,68.98261 -3.4918,1.16319 -4.2313,25.13435 -3.1245,28.95566 l -3.1245,9.36794 v 0.85162 l 3.1245,1.70336 v 0.85162 l -3.1245,0.85162 c 5.459,24.1068 7.0997,89.05684 -3.1246,111.56444 l 3.1246,0.85161 c -22.4819,20.68129 -128.4927,7.15149 -166.6414,16.18114 l 1.0416,2.55486 c -13.8777,4.62321 21.9207,9.19301 23.9547,9.36805 5.0773,-5.73343 37.2739,-5.30684 45.8264,-5.10983 26.5225,0.61091 77.4771,-1.0621 101.0262,-8.51632 v -0.85163 h -4.166 v -1.70335 h 7.2906 v -0.85162 l -3.1246,-0.85162 c 3.6522,-1.27981 4.5826,-2.94172 3.1246,-5.96146 3.5435,-1.159 1.0934,-5.06726 -1.0415,-6.81307 l 3.1245,-2.55498 c -2.1921,-1.25468 -2.7299,-1.73641 0,-2.55486 -7.0787,-15.71049 6.4208,-38.79436 -1.0415,-55.35646 h 2.083 l 1.0415,-3.40649 -3.1245,-0.85162 3.1245,-0.85162 -1.0415,-9.36806 4.166,-11.07129 -1.0415,-6.81308 h -2.083 l 2.083,-10.21966 h 2.0831 c -2.8041,-7.26062 -2.7609,-19.45108 1.0415,-26.4007 h -2.0831 c 2.0745,-2.3874 3.7889,-5.60549 1.0416,-7.6648 v -0.85162 l 5.2075,-17.88437 h -2.083 c 10.9258,-19.96984 -0.4749,-45.19918 8.8529,-63.87278 4.5586,-9.12611 23.2033,-3.46593 27.4264,-12.77454 2.6166,-5.76797 2.7319,-35.97276 6.4225,-37.89779 39.1695,-20.43188 115.4486,12.25951 158.3093,-8.09062 l 1.0415,2.55497 h 13.5397 v -2.55497 c 4.5496,1.86005 41.1962,3.8735 42.7017,0.85162 h 1.0415 1.0417 c 1.85,3.8512 22.5234,1.99761 28.1207,2.69683 29.2146,3.6498 63.1386,-4.79837 92.6941,1.56139 15.3885,-12.01123 63.8921,12.73921 65.615,-11.92293 l -37.4943,-2.55485 c -10.5828,10.62046 -101.1474,0.21703 -119.7734,0.85161 -6.0483,0.20606 -29.771,-2.49463 -32.2868,2.55486 h -1.0414 c -0.5066,-3.52139 -3.7189,-2.24747 -7.2906,-2.55486 l -1.0415,2.55486 c -6.7784,-3.64639 -16.0289,-3.40647 -23.9546,-3.40647 l 1.0414,1.70323 -11.4567,-0.85162 c 0,1.03176 -33.751,-0.58589 -39.5773,0.14187 -40.3117,5.03614 -98.006,-9.421273 -135.396,2.41299 -5.2145,-23.147956 -42.1727,-29.171342 -65.615,-21.716663 -64.956,20.655833 -176.3459,39.276573 -254.1281,20.865043 M 215.28899,90.198007 l 1.04154,0.851621 -1.04154,-0.851621 m 10.41516,0.851621 -1.04152,0.85162 1.04152,-0.85162 m 107.27531,11.071302 1.04153,0.85162 -1.04153,-0.85162 m -2.08304,4.25811 1.04152,0.85173 -1.04152,-0.85173 m 137.47913,5.10982 1.04152,2.55499 c -10.46371,3.13703 -1.98385,21.93471 -6.24904,27.82009 -0.44452,0.6133 -53.31438,4.57104 -40.61887,8.80027 -1.65023,10.25568 31.83928,2.56245 37.32081,6.95505 9.38919,7.52396 -11.74327,41.04069 3.29806,45.56249 23.96062,7.20333 7.02947,-39.39962 15.62267,-44.99471 8.4909,-5.52863 38.13068,-0.46396 48.95084,-0.70975 5.69132,-0.12929 11.75662,-5.53667 8.85286,-10.21967 -8.32756,-13.42962 -45.32304,4.11692 -56.58859,-4.54206 -8.54133,-6.56513 15.38718,-31.58933 -5.38122,-32.92994 V 108.934 l 2.08306,-0.85161 -8.3321,3.40647 m 1300.84405,-1.70324 -1.0415,0.85162 1.0415,-0.85162 m 14.5812,0 -1.0416,0.85162 1.0416,-0.85162 m 8.332,0 1.0414,1.70324 -1.0414,-1.70324 m 12.4982,0.85162 v 0.85162 h -3.1247 l 3.1247,-0.85162 m -531.1694,0.85162 1.0414,0.85162 -1.0414,-0.85162 m 477.0109,0 -1.0416,0.85162 1.0416,-0.85162 m 17.7056,0 -1.0415,0.85162 1.0415,-0.85162 m 2.0831,0 -1.0416,0.85162 1.0416,-0.85162 m -543.6675,0.85162 v 0.85174 h -3.1246 l 3.1246,-0.85174 m 20.8303,0 -1.0415,0.85174 1.0415,-0.85174 m 30.2037,0 -1.0416,0.85174 1.0416,-0.85174 m 3.1244,0 -1.0414,0.85174 1.0414,-0.85174 m 9.3736,0.28396 c 0.8056,0 0.167,0.42399 -0.3472,0.28383 l 0.3472,-0.28383 m 464.5127,-0.28396 -1.0414,0.85174 1.0414,-0.85174 m -541.5842,1.13559 c 0.8053,0 0.167,0.42399 -0.3472,0.28383 l 0.3472,-0.28383 m 57.2828,-0.28385 -1.0415,0.85163 1.0415,-0.85163 m -16.664,0.85163 -1.0415,0.85162 1.0415,-0.85162 m -33.3283,0.85162 1.0415,1.70324 h -2.0829 l 1.0414,-1.70324 m 3.1244,0 3.1246,0.85162 v 0.85162 l -4.1661,-0.85162 1.0415,-0.85162 m 24.9963,0 -3.1245,1.70324 v -0.85162 l 3.1245,-0.85162 m 10.4152,0 -3.1247,1.70324 v -0.85162 l 3.1247,-0.85162 m 4.1658,0 v 2.55486 h -1.0414 -1.0415 l 2.0829,-2.55486 m 26.0378,0 1.0415,1.70324 h -2.083 l 1.0415,-1.70324 m 464.1655,0.56767 -0.347,0.5679 0.347,-0.5679 m 29.5095,-0.56767 v 0.85162 l -4.166,0.85162 4.166,-1.70324 m 9.3736,0 -3.1245,1.70324 v -0.85162 l 3.1245,-0.85162 m 4.1661,0 1.0415,4.25821 h -1.0415 -1.0416 l 1.0416,-4.25821 m 3.1244,0 -1.0414,0.85162 1.0414,-0.85162 m 22.9133,0 1.0415,1.70324 h -2.0832 l 1.0417,-1.70324 m -62.4905,0.85162 v 0.85162 h -3.1245 l 3.1245,-0.85162 m -506.1731,0.85162 -1.0415,0.85162 1.0415,-0.85162 m 485.3429,0 -1.0415,0.85162 1.0415,-0.85162 m 30.8981,0.56779 -0.3472,0.56777 0.3472,-0.56777 m 17.0112,-0.56779 -1.0414,0.85162 1.0414,-0.85162 m -571.788,1.13556 c 0.8053,0 0.167,0.42401 -0.3473,0.28385 l 0.3473,-0.28385 m 12.4981,0.56768 v 0.85173 h -4.1662 l 4.1662,-0.85173 m 29.1622,-0.85162 -1.0416,0.85162 1.0416,-0.85162 m 492.6334,0 -1.0415,0.85162 1.0415,-0.85162 m 40.6189,0.28394 c 0.8055,0 0.1664,0.42378 -0.3472,0.28385 l 0.3472,-0.28385 m 3.1244,-0.28394 -1.0414,0.85162 1.0414,-0.85162 m -571.788,1.13556 c 0.8055,0 0.1669,0.42389 -0.3472,0.28385 l 0.3472,-0.28385 m 46.8678,-0.28394 -1.0414,0.85173 1.0414,-0.85173 m 487.4259,0 v 0.85173 h -3.1244 l 3.1244,-0.85173 m -513.4636,1.13557 c 0.8053,0 0.167,0.424 -0.3472,0.28384 l 0.3472,-0.28384 m 586.3693,-0.28384 -1.0416,0.85162 1.0416,-0.85162 m -603.0334,0.85162 -1.0416,0.85162 1.0416,-0.85162 m 27.0793,0.28384 c 0.8056,0 0.1667,0.42388 -0.3473,0.28384 l 0.3473,-0.28384 m 30.2036,-0.28384 -1.0415,0.85162 1.0415,-0.85162 m -20.1358,1.4193 -0.3471,0.56789 0.3471,-0.56789 m -538.11263,1.13557 1.04153,0.85162 -1.04153,-0.85162 m 22.91314,0.85162 1.04151,2.55497 -1.04151,-2.55497 m 448.54289,0.28394 0.6945,0.28385 -0.6945,-0.28385 m -504.78431,0.85162 0.34716,0.28385 c -0.51401,0.14004 -1.15253,-0.28385 -0.34716,-0.28385 m 20.83018,-0.28394 -1.04152,0.85173 1.04152,-0.85173 m 7.29057,0 -1.04152,2.55497 h -1.04152 l -1.04153,-2.55497 h 3.12457 m 34.36971,0 -1.04153,0.85173 1.04153,-0.85173 m -30.20371,0.85173 -1.04152,0.85162 1.04152,-0.85162 m 16.66409,0 -1.04141,0.85162 1.04141,-0.85162 m -27.07912,0.85162 -1.04154,0.85162 1.04154,-0.85162 m -23.95478,0.85162 -1.04152,0.85162 1.04152,-0.85162 m 35.41134,0 -1.04153,3.40649 h -1.04152 v -3.40649 h 2.08305 m -18.74714,1.98719 c 0.80548,0 0.16674,0.42389 -0.34718,0.28383 l 0.34718,-0.28383 m 12.49809,0.56768 v 0.85162 h -4.1661 l 4.1661,-0.85162 m -5.20751,0.85162 -1.04154,0.85173 1.04154,-0.85173 m 15.62255,0 -1.04153,0.85173 1.04153,-0.85173 m 274.95824,0 -1.0415,0.85173 1.0415,-0.85173 m -284.33176,1.70335 1.04142,0.85162 -1.04142,-0.85162 m 26.03772,0 -1.04152,0.85162 1.04152,-0.85162 m 803.00304,23.84582 c 7.9046,-40.07179 28.1902,11.52575 0,0 m -16.6642,2.55487 c -9.9792,-1.50307 -21.3675,-4.02058 -22.9132,-13.62616 12.3049,-0.79433 30.5412,-1.18708 22.9132,13.62616 m -1353.96099,6.81307 v 0.85173 h -3.12447 l 3.12447,-0.85173 m -34.36981,3.4066 -1.04141,0.85162 1.04141,-0.85162 m 37.49439,0.28395 c 0.80548,0 0.16664,0.42376 -0.34718,0.28372 l 0.34718,-0.28372 m -19.78866,3.12264 -1.04154,0.85162 1.04154,-0.85162 m 34.3697,0.28383 0.34718,0.28385 c -0.51403,0.14004 -1.15254,-0.28385 -0.34718,-0.28385 m 299.95445,98.50595 -1.04153,0.85174 1.04153,-0.85174 m 755.09362,27.25243 c -10.8752,12.12603 -58.0665,2.19732 -73.9469,7.66469 -0.9324,-1.80207 -19.898,-1.80207 -20.8303,0 -11.0366,-3.08731 -46.5376,4.89937 -53.1169,-1.70324 h -1.0415 c -38.4597,19.03454 -120.75542,-23.26604 -157.09431,-1.27742 -7.74829,4.68844 7.40861,5.96236 10.24145,5.53564 -0.83092,3.6696 45.55106,5.13384 52.07546,6.2453 56.3242,9.59505 116.9705,-0.92873 173.932,3.97438 l 9.3734,-2.55498 6.2491,3.40659 3.1247,-0.85161 -34.3699,19.58761 v 0.85162 c 9.5533,12.90632 13.3365,-1.75623 24.9961,0 v -2.55486 h 1.0416 l 24.9962,-5.10984 c 2.8743,29.77015 -70.7076,37.61293 -79.1545,56.20798 h 3.1245 c 4.3793,8.11631 23.4035,-0.1053 31.2452,-0.28384 17.4629,-0.39672 103.4249,5.3897 103.63,-0.56778 0.8033,-23.3136 -69.1936,-6.39611 -75.5092,-16.18113 l 15.6226,-15.32941 c 4.5508,1.17508 9.1566,-2.09633 7.2904,-5.96146 11.91,-3.82606 16.8679,-25.21631 11.4567,-34.06549 l 22.9132,-2.55486 c 3.6861,7.3984 65.0324,-16.76602 77.2452,-9.08422 6.9947,4.39974 0.7561,21.50846 0.8679,27.82021 0.499,28.14288 -8.069,55.56603 -9.2001,83.31842 -0.2282,5.60143 0.1082,29.22818 -4.3396,31.6525 3.5961,8.59455 -7.1687,44.48931 3.1247,48.96919 17.303,7.53066 12.1974,-37.11047 12.4981,-43.00774 2.3118,-45.37251 4.8989,-99.17903 13.5396,-143.92658 l -3.1246,-8.51643 c 11.4462,0 23.6364,-5.56293 27.0792,-14.47777 -35.7474,-9.23061 -86.5251,16.72185 -123.9395,12.77453 M 460.04355,284.37123 v 0.85162 h -3.12457 l 3.12457,-0.85162 m 441.59947,2.55486 1.04153,0.85162 -1.04153,-0.85162 m 634.27868,0.85162 -1.0415,0.85162 1.0415,-0.85162 m -164.5583,0.85162 -1.0414,0.85174 1.0414,-0.85174 m -468.67885,6.81319 -1.04153,0.85162 1.04153,-0.85162 m 2.08304,0 -1.04151,0.85162 1.04151,-0.85162 m 4.16601,5.10983 -1.04153,0.85162 1.04153,-0.85162 m 36.45286,0 1.0415,0.85162 -1.0415,-0.85162 m 20.83015,0.85162 -1.0415,0.85162 1.0415,-0.85162 m -14.58107,0.85162 -1.04159,0.85162 1.04159,-0.85162 m 5.20749,1.13546 0.34717,0.28395 c -0.51401,0.14016 -1.15273,-0.28395 -0.34717,-0.28395 m 249.96207,15.04568 -6.249,-0.85174 c 2.6739,-1.88823 4.7697,-1.88994 6.249,0.85174 m -101.0264,20.43923 24.9964,-3.40659 -1.0415,-1.70325 3.1244,-0.85162 -1.0415,-1.70324 h 2.0831 c -6.3146,-28.03124 -115.4275,9.21793 -56.2416,6.52923 10.6438,-0.48354 17.3841,-1.40592 28.1207,1.13547 m 76.0302,1.70324 -1.0415,0.85163 1.0415,-0.85163 m 344.7392,1.70335 -1.0415,0.85162 1.0415,-0.85162 m -347.1693,1.98708 0.6943,0.28395 -0.6943,-0.28395 m -161.0868,23.56199 1.0415,1.70325 h -1.0415 l -23.95476,-0.85162 c -2.19801,4.55359 -4.6743,3.34805 -9.37347,4.2582 v 0.85162 l 5.20758,0.85163 -1.04149,2.55497 c 18.16414,6.25368 43.95734,1.70324 63.53204,1.70324 l -12.4982,9.36795 -36.4528,23.84593 2.0829,0.85163 v 0.85162 c -4.2205,0.27239 -8.69291,1.91801 -10.41496,5.10984 l -3.12459,-0.85163 -2.0829,5.10973 c -20.16457,0.44573 -39.5788,28.95588 -57.28298,28.95565 l 1.04142,2.55498 c -3.20967,0.27625 -5.72597,0.77792 -5.20753,3.40648 l -3.12446,1.70336 -4.16611,-0.85174 c 1.1e-4,6.0492 -16.15105,10.06966 -7.98492,18.7361 10.0801,10.69746 111.25743,10.76493 126.71693,5.10984 v 2.55486 h 1.0415 34.3698 l 5.2076,-2.55486 c -0.3213,-2.43123 -0.3609,-2.88726 -3.1246,-2.55498 3.1893,-10.72065 -18.4692,-9.97444 -27.2528,-8.0905 -16.4838,3.53543 -101.05614,5.75732 -112.30931,-5.53564 l 3.12447,0.85162 v -0.85162 h -4.166 l 5.20752,-6.81308 6.24907,-2.55498 c 5.95684,1.02552 15.05414,-5.67162 16.66416,-10.21967 11.49502,1.73143 16.82771,-15.10885 27.07914,-15.3294 v -0.85162 h -3.12439 l 2.08299,-2.55497 7.29058,0.85162 c 6.04027,-8.50647 27.87407,-12.13532 29.16217,-22.14247 l 11.4566,-4.25822 -2.083,-0.85162 v -0.85163 c 15.0807,0 61.0083,-25.03279 62.4904,-33.21387 -23.7694,-10.74104 -55.8981,5.99769 -81.2376,0 m -20.83006,4.25821 v 0.85162 h -3.1247 l 3.1247,-0.85162 m 531.16916,23.84584 -1.0415,0.85162 1.0415,-0.85162 m -1.0415,1.70324 v 0.85161 h -3.1245 l 3.1245,-0.85161 m -909.23683,5.96145 -1.04153,0.85162 1.04153,-0.85162 m 31.93958,0.28384 0.69435,0.28395 -0.69435,-0.28395 m 875.90855,1.13557 -0.3471,0.56778 0.3471,-0.56778 m 4.5133,-0.56779 -1.0415,0.85162 1.0415,-0.85162 m -7.2906,0.85162 -1.0415,0.85162 1.0415,-0.85162 m 3.1245,1.70336 -1.0415,0.85162 1.0415,-0.85162 m -916.52743,0.85162 -1.04142,0.85162 1.04142,-0.85162 m 17.70573,2.55486 -1.04154,0.85162 1.04154,-0.85162 m 77.0716,3.4066 -1.04152,0.85162 1.04152,-0.85162 m 304.1205,0.85162 -1.0416,0.85162 1.0416,-0.85162 m 2.083,1.70324 -1.0415,0.85162 1.0415,-0.85162 m -12.49807,0.85162 -1.04149,0.85173 1.04149,-0.85173 m 2.08287,1.13556 c 0.8056,0 0.1671,0.42401 -0.3471,0.28383 l 0.3471,-0.28383 m -397.85608,2.27104 -2.08306,1.70324 2.08306,-1.70324 m 109.35835,0 -1.04152,0.85162 1.04152,-0.85162 m -3.12457,6.81307 v 6.81307 0.85162 l -7.29058,8.51644 -4.16599,-0.85162 c -1.84635,3.70549 -25.4728,3.29553 -26.90565,-1.70336 -2.34591,-8.1847 8.11735,-10.18084 10.24157,-16.18101 l 28.12065,2.55486 m -274.95816,-1.70324 -2.08305,1.70324 v -1.70324 h 2.08305 m 557.20701,0.85162 3.12439,0.85162 v 0.85162 l -4.16589,-0.85162 1.0415,-0.85162 m -396.81474,0.85162 1.04153,0.85162 -1.04153,-0.85162 m 394.73175,1.70324 -1.0416,0.85173 1.0416,-0.85173 m -409.3129,0.85173 -1.04153,0.85162 1.04153,-0.85162 m -20.83019,0.85162 -1.04152,0.85162 1.04152,-0.85162 m -2.08293,1.98709 c 0.80547,0 0.16673,0.4241 -0.34719,0.28394 l 0.34719,-0.28394 m 432.22602,-0.28385 1.04149,0.85162 -1.04149,-0.85162 m -478.05241,3.4066 -1.04152,0.85162 1.04152,-0.85162 m 27.07924,0 -1.04152,0.85162 1.04152,-0.85162 m -83.32076,0.85162 -1.04141,0.85162 1.04141,-0.85162 m 119.42634,0.28383 0.69435,0.28396 -0.69435,-0.28396 m -57.9773,1.41941 -1.04152,0.85162 1.04152,-0.85162 m 3.12447,0 -1.04141,0.85162 1.04141,-0.85162 m -6.24904,1.70324 -1.04143,0.85162 1.04143,-0.85162 m 4.16611,1.70336 -1.04154,0.85162 1.04154,-0.85162 m 1.04152,2.55486 -1.04152,0.85162 1.04152,-0.85162 m -35.41134,0.85162 -1.04153,0.85162 1.04153,-0.85162 m 48.60378,1.98718 0.69424,0.28384 -0.69424,-0.28384 m 4.51317,-0.28394 1.04153,0.85174 -1.04153,-0.85174 m 349.94683,5.10983 -1.04154,0.85162 1.04154,-0.85162 m -202.05265,4.25822 -1.04153,0.85162 1.04153,-0.85162 m 262.46014,1.70324 -1.0415,0.85162 1.0415,-0.85162 m -10.41513,7.66482 v 1.70324 l -2.08304,-1.70324 h 2.08304 m 140.60367,18.73598 1.0415,0.85162 -1.0415,-0.85162 m -363.48639,38.3236 -1.04154,0.85174 1.04154,-0.85174 m 10.41503,0 -1.04152,0.85174 1.04152,-0.85174 m 137.47913,30.65902 c 3.63817,14.13111 60.05947,11.92291 74.98856,11.92291 57.90156,0 113.82447,-21.87063 170.80747,-26.4008 25.4207,-2.02093 69.3433,8.11485 91.6527,-3.40648 l -1.0416,2.55486 c 3.9256,0 9.8165,0.8591 11.4568,-2.55486 h 1.0414 c 5.8705,5.01858 14.5507,3.14699 20.8301,0 l -1.0415,1.70324 h 1.0415 3.1246 v -1.70324 l 8.332,0.85162 -1.0414,-2.55498 28.1206,1.70336 c -1.6137,-2.38775 -3.9938,-4.02125 0,-5.10984 -2.6044,-5.25316 -20.2759,-4.66262 -26.0377,-2.55497 v -1.70324 l -10.415,1.70324 c -9.4221,-7.41901 -54.5006,-2.45217 -67.3508,-2.27102 -74.0388,1.04397 -139.4722,20.19716 -212.81496,25.26523 -23.48324,1.62274 -75.50844,-7.81744 -91.65277,2.55497 m -123.9395,-28.10404 -1.04154,0.85162 1.04154,-0.85162 m -10.41515,0.85162 -1.04142,0.85162 1.04142,-0.85162 m 2.08304,0 -1.04153,0.85162 1.04153,-0.85162 m 514.50514,1.70324 2.0831,3.40659 -6.249,-1.70323 4.1659,-1.70336 m 5.2076,0 v 0.85162 h -3.1245 l 3.1245,-0.85162 m -10.415,0.85162 -1.0417,0.85174 1.0417,-0.85174 m 28.1207,0 -1.0416,0.85174 1.0416,-0.85174 m -15.6227,1.70335 v 0.85162 h -3.1244 l 3.1244,-0.85162 m -382.23356,0.85162 v 0.85162 h 3.12447 l -3.12447,-0.85162 m 371.81856,0 -1.0415,0.85162 1.0415,-0.85162 m 14.581,0 4.1662,0.85162 v 0.85162 l -5.2076,-0.85162 1.0414,-0.85162 m -12.4981,1.13546 c 0.8055,0 0.167,0.42411 -0.3472,0.28395 l 0.3472,-0.28395 m 11.4567,0.56778 v 0.85162 h -3.1246 v -0.85162 h 3.1246 m -516.58823,0.85162 -1.04154,0.85162 1.04154,-0.85162 m 504.09013,0.85162 v 0.85174 h -3.1245 l 3.1245,-0.85174 m 10.4151,0.85174 1.0415,0.85162 -1.0415,-0.85162 m 9.0263,0.28384 0.6944,0.28384 -0.6944,-0.28384 m 3.1245,0 0.6944,0.28384 -0.6944,-0.28384 m -203.7885,7.38086 -1.0414,0.85162 1.0414,-0.85162 m -194.41486,3.12265 0.34718,0.56778 -0.34718,-0.56778 m 17.35845,73.52467 2.08304,2.55486 v 0.85162 c -1.87735,1.40728 0.76067,35.33206 0,41.73031 -5.21679,43.87589 -11.07363,91.25066 -20.83019,134.55864 -70.85258,-28.96801 -175.78859,15.00095 -247.87902,-3.26473 -7.67571,-1.94473 -5.2009,-17.89219 -8.85275,-23.13608 -10.68111,-15.33754 -32.06395,-28.03316 -52.59619,-32.92992 -31.03125,-7.40079 -69.89393,7.27252 -83.32065,31.22668 -25.27097,45.08484 22.86469,57.27313 43.22256,86.86699 6.38224,9.27771 1.90947,33.91821 1.90947,44.85285 0,37.78334 -2.24131,74.67586 -0.34719,111.84832 0.48677,9.5525 -7.37598,27.502 -1.21511,35.7689 12.55603,16.8484 101.83406,-1.0917 123.07157,1.5613 77.30171,9.657 154.55563,0.8607 231.21483,6.955 68.71788,5.4631 135.56094,12.2161 199.96974,-11.923 34.6654,-12.9917 88.1702,-25.0947 126.0225,-28.1039 6.6994,-0.5326 38.7355,-2.9749 36.1057,-11.0713 -2.4048,-7.4027 -34.0781,-1.1933 -40.2718,0.2839 -42.6812,10.1792 -85.6578,19.3141 -128.1054,28.9556 -129.31386,29.372 -283.28878,16.9382 -416.60347,4.826 -29.39524,-2.6707 -94.17148,13.4638 -118.5584,1.2774 -10.95346,-5.4735 0.11036,-64.22215 -1.21511,-75.36998 -2.38885,-20.09143 -11.38705,-90.68557 3.47175,-106.4546 7.4955,-7.95465 39.7155,-2.52599 52.59608,-13.05849 37.12326,-30.35547 31.56834,-48.09221 91.82634,-47.4077 61.69491,0.7007 126.53296,7.18273 188.51303,8.51633 0,13.50941 -25.42955,66.28952 -17.18485,73.95058 11.22217,10.42766 27.27258,-47.96507 28.46782,-54.36287 5.09055,-27.24562 9.6e-4,-56.89429 6.76982,-83.46051 7.34751,-28.83836 28.00764,-78.77365 14.23397,-107.30621 5.60424,-1.86695 -4.95625,-13.90864 9.37361,-12.77453 l 9.37363,-3.4066 c 25.58073,7.70635 59.65583,-1.8459 86.44508,0.28394 70.7338,5.62328 142.9252,-1.13556 213.5094,-1.13556 11.3789,0 90.4541,-1.03606 91.6527,-9.36795 l 2.0829,1.70325 5.2075,-1.70325 v -3.40658 l -4.166,-1.70325 v 1.70325 c -27.6982,-9.53619 -85.0045,0.20481 -114.5658,2.55485 -98.9659,7.86781 -214.02433,11.46608 -311.41111,8.51644 m 452.01471,-2.55498 -1.0415,10.21968 v 0.85162 c -5.3737,0.47506 -9.4684,9.96051 -5.2076,12.77464 -13.5997,10.72337 -13.8477,42.13189 -15.6227,57.05959 -5.053,42.50076 -9.5026,82.81936 -23.6074,124.33897 -2.9556,8.70053 -26.0612,51.35276 -13.8868,50.24663 16.6837,-1.51586 23.6878,-37.21056 27.4263,-47.69166 17.4937,-49.0438 21.6976,-101.33559 24.3019,-152.443 0.517,-10.14813 19.1206,-40.77396 9.7209,-47.69165 5.3069,-0.93824 3.5303,-3.30471 4.166,-6.81309 l -6.2491,-0.85173 m 4.166,1.70336 -1.0414,0.85162 1.0414,-0.85162 m -428.05995,1.70324 -1.04153,0.85162 1.04153,-0.85162 m 17.70561,0 -1.04153,0.85162 1.04153,-0.85162 m -47.56225,1.41941 0.34728,0.56777 -0.34728,-0.56777 m 454.79209,0.56777 c 0.8054,0 0.167,0.42401 -0.3472,0.28385 l 0.3472,-0.28385 m -434.30908,0.56768 -1.04141,0.85173 1.04141,-0.85173 m 229.13208,20.72319 c -9.1598,1.45641 -51.3913,0.42682 -53.8114,8.23247 -3.0588,9.86587 57.2838,6.35127 64.9207,1.27755 8.3635,-5.5566 -5.6238,-10.38214 -11.1093,-9.51002 m 73.9469,61.8857 c 8.4535,-0.18194 19.1773,-10.84973 27.0793,-8.51644 17.7071,5.22861 3.918,30.80983 19.7887,34.77515 40.5297,10.1265 -5.4649,-29.94507 -11.9774,-44.99482 -4.405,-10.1797 11.254,-24.63835 -0.6943,-36.62036 -10.1393,-10.16794 -39.9984,-6.52177 -48.4301,3.4066 -14.5722,17.15865 63.4192,-13.37538 38.7093,22.99421 -9.252,13.61766 -95.1809,9.88386 -83.6678,36.62036 4.6881,10.88685 57.7882,2.38197 59.1923,-7.6647 M 320.48137,659.94312 c 1.88177,11.92494 19.09432,26.00679 19.09432,36.33652 0,11.71753 -48.2565,12.57877 -48.2565,35.20095 h 6.24905 c 1.77792,-7.89215 9.54302,-7.73398 16.66409,-10.64548 7.74435,-3.16624 26.54975,-17.14008 35.41134,-14.61975 10.02515,2.85126 38.10431,42.0034 47.73573,33.49771 11.57752,-10.2242 -36.42606,-31.43863 -35.932,-40.59474 0.21133,-3.91822 14.94069,-8.2524 18.22638,-11.07118 3.51181,-3.01282 6.69907,-6.19751 10.41505,-9.08421 40.17478,-31.20812 -42.14772,10.06151 -39.23016,11.21327 -13.2633,-5.23574 -12.67853,-32.89913 -30.3773,-30.23309 m 621.78051,40.02695 2.08308,3.40648 v 0.85162 l -3.1246,0.85162 c 27.66365,16.07256 113.28304,-18.73599 146.85284,-18.73599 -38.7689,31.70073 -94.08172,54.48808 -136.43766,84.31212 -9.58896,6.75173 -39.69865,22.22525 -40.44531,33.21378 -0.66389,9.77145 31.25583,8.02857 39.40372,7.38085 30.01322,-2.38593 60.51785,-4.13684 90.61125,-6.52923 6.9131,-0.54945 26.6493,4.23862 31.0718,2.12915 17.8703,-8.52401 -36.3189,-11.4971 -41.4868,-11.4971 -11.2159,0 -23.2328,0.21648 -34.36976,1.9872 -17.095,2.718 -45.72824,5.38711 -62.49065,1.41929 v -0.85163 c 15.48487,-4.66488 77.39201,-46.01138 83.32081,-57.91132 12.1259,1.30472 37.891,-22.56512 49.9923,-27.2523 -0.4415,-3.73086 12.23,-9.93347 16.6643,-10.21968 l -1.0415,-1.70324 c 9.8393,-0.21183 60.9128,-20.36327 48.9508,-26.11697 -9.732,-4.68096 -30.2354,0.44993 -40.6187,0.56779 -47.5303,0.5397 -103.43145,12.94731 -148.93592,24.69756 m 254.12802,-1.70336 v 0.85162 c -9.3858,4.84718 -21.0126,8.27381 -32.2867,8.51644 5.3986,-5.41756 23.8736,-11.72162 32.2867,-9.36806 m 352.03,183.95366 v -9.36806 c 2.4353,-0.84256 4.1201,-54.47212 -1.0416,-57.91132 12.2318,-9.64453 -4.1396,-36.00492 3.6454,-48.54328 2.9308,-4.72037 13.8931,-1.52447 18.9206,-3.83241 5.7308,-2.63083 4.751,-7.93188 3.4717,-12.34872 65.6433,-15.53782 142.9222,3.23191 210.3848,-6.10331 8.9529,-1.23894 56.616,3.63325 59.0187,-4.11636 2.7944,-9.01334 -50.8493,-6.61087 -59.0187,-5.96146 -49.7247,3.9531 -101.8334,3.4066 -152.0603,3.4066 -16.5364,0 -41.6858,6.60408 -57.283,1.84521 -6.717,-2.04935 4.3367,-7.53608 -3.1245,-9.50991 l 1.0415,-1.70335 c -33.1568,-8.56161 -40.0976,11.38321 -62.4905,14.47788 -42.2277,5.83591 -89.3458,2.55486 -132.2715,2.55486 -5.9785,0 -60.0923,-2.28437 -48.7774,7.52285 8.2217,7.12622 34.5222,1.70833 44.6113,1.13545 37.622,-2.13641 76.0053,1.13636 113.5244,-0.14186 10.6984,-0.36456 44.494,-4.27939 49.9924,5.10984 8.4971,14.50912 2.9995,46.78545 2.0831,63.02104 -2.6378,46.73214 4.2686,94.77783 -3.6454,141.37172 -1.9313,11.37154 -21.5844,74.70532 -13.8867,80.62172 11.4069,8.7678 18.5209,-23.0214 19.2679,-27.6782 5.3417,-33.30383 10.9253,-68.48112 9.2001,-102.33841 -0.2734,-5.36469 2.9663,-29.94382 -1.5623,-31.51052 m -12.4982,-145.62994 c -1.1089,4.30735 -3.6307,5.73332 -8.3321,3.40648 l 8.3321,-3.40648 m -965.47826,21.29085 c -4.74425,0 -22.38353,4.6024 -11.45667,8.94224 10.16896,4.03869 22.77751,-2.45716 30.89817,5.53564 54.35049,53.4953 -88.19833,122.19895 -109.35837,33.21388 -2.50725,-10.54369 -1.31696,-22.1856 4.86023,-31.51064 8.1284,-12.27037 81.1469,-43.35451 85.05664,-16.18112 m -30.2038,46.84004 c -3.25105,9.18384 -5.60061,21.40599 9.37362,20.43933 2.73889,-28.36828 28.48714,-11.53412 34.02263,-23.84582 5.54257,-12.32766 -19.54865,-6.25356 -25.69064,-9.79387 -6.06828,-3.49784 2.39965,-13.76506 -8.33199,-15.47136 -9.33477,-1.48416 -3.8591,13.78658 -9.37362,16.32299 -22.07004,10.15129 -34.60365,4.15801 0,12.34873 m -215.59228,-8.23237 c -85.91001,7.80508 63.56422,11.28958 90.61123,15.89717 11.26621,1.91915 35.03371,8.50443 45.82638,3.8323 17.80615,-7.70817 -23.87189,-12.01088 -28.12065,-12.34872 -33.05384,-2.62767 -74.75825,-10.42969 -108.31696,-7.38075 m 919.65194,85.30561 c -45.8466,18.74425 -100.0059,10.18491 -151.0187,11.92291 -58.6593,1.99851 -117.1154,7.96982 -176.0149,10.64536 -18.11724,0.82299 -85.19415,-8.76086 -97.55463,1.13558 -8.76591,7.01846 95.76246,8.59964 111.09424,7.38086 77.94029,-6.19604 158.15299,-2.68427 235.03379,-11.35525 21.9999,-2.48115 51.7,8.18539 73.0792,-1.84509 7.8022,-3.66055 22.5842,-24.91788 5.381,-17.88437 m -721.76527,54.07891 -1.04153,0.85162 1.04153,-0.85162 m 759.25957,135.41033 c 66.3916,16.1395 161.0164,-4.2581 231.215,-4.2581 3e-4,-12.8398 -31.2897,-12.1421 -48.9509,-9.9357 -55.8129,6.9723 -128.4653,-6.8093 -181.2226,9.084 0.3379,-10.4998 1.4005,-22.1928 3.8189,-32.3622 1.2715,-5.3469 1.2891,-43.60863 -8.3321,-37.47214 -7.1671,4.57124 -3.7007,25.50004 -3.8189,32.36224 -0.3798,22.0569 -25.7361,86.8207 -9.2,104.7514 7.115,7.7151 16.4906,-52.7179 16.4906,-62.1695 m -109.3582,25.5492 c 3.2968,1.0641 82.5754,20.6668 66.6565,-6.8131 -50.9306,26.0286 -29.1646,-26.1645 -43.7434,-27.8201 -8.9725,-1.019 -44.2832,58.9497 -50.3396,11.0712 -0.6258,-4.9468 7.319,-7.7157 6.5962,-12.2068 l 47.9095,-5.1098 1.0415,-5.9614 c -30.9769,-4.6661 -89.5216,3.1886 -65.0943,42.5818 4.2261,6.8153 33.2105,11.8112 36.9736,4.2582 m 24.996,-46.84 -1.0415,0.8516 1.0415,-0.8516 m 71.8641,91.9767 c 9.8923,-2.9801 38.4904,4.4457 39.5773,-6.8131 -45.911,0 -95.2331,13.9063 -140.6034,4.1163 -36.0835,-7.7862 -71.1644,-40.2808 -104.1509,-55.6403 -7.9695,-3.711 -58.9915,-24.732 -57.1095,-13.7682 1.8616,10.8455 39.4863,16.5726 49.8189,21.149 49.0075,21.7064 82.8282,56.3818 139.562,60.8921 9.5176,0.7565 74.041,-3.0666 72.9056,-9.9358 z"
       id="path1" /></g></svg>
