%TF.GenerationSoftware,KiCad,Pcbnew,9.0.4*%
%TF.CreationDate,2025-11-20T21:28:14+01:00*%
%TF.ProjectId,Projekt,50726f6a-656b-4742-9e6b-696361645f70,rev?*%
%TF.SameCoordinates,Original*%
%TF.FileFunction,Copper,L1,Top*%
%TF.FilePolarity,Positive*%
%FSLAX46Y46*%
G04 Gerber Fmt 4.6, Leading zero omitted, Abs format (unit mm)*
G04 Created by KiCad (PCBNEW 9.0.4) date 2025-11-20 21:28:14*
%MOMM*%
%LPD*%
G01*
G04 APERTURE LIST*
G04 Aperture macros list*
%AMRoundRect*
0 Rectangle with rounded corners*
0 $1 Rounding radius*
0 $2 $3 $4 $5 $6 $7 $8 $9 X,Y pos of 4 corners*
0 Add a 4 corners polygon primitive as box body*
4,1,4,$2,$3,$4,$5,$6,$7,$8,$9,$2,$3,0*
0 Add four circle primitives for the rounded corners*
1,1,$1+$1,$2,$3*
1,1,$1+$1,$4,$5*
1,1,$1+$1,$6,$7*
1,1,$1+$1,$8,$9*
0 Add four rect primitives between the rounded corners*
20,1,$1+$1,$2,$3,$4,$5,0*
20,1,$1+$1,$4,$5,$6,$7,0*
20,1,$1+$1,$6,$7,$8,$9,0*
20,1,$1+$1,$8,$9,$2,$3,0*%
G04 Aperture macros list end*
%TA.AperFunction,Conductor*%
%ADD10C,0.640000*%
%TD*%
%TA.AperFunction,Conductor*%
%ADD11C,0.200000*%
%TD*%
%TA.AperFunction,SMDPad,CuDef*%
%ADD12RoundRect,0.155000X0.212500X0.155000X-0.212500X0.155000X-0.212500X-0.155000X0.212500X-0.155000X0*%
%TD*%
%TA.AperFunction,SMDPad,CuDef*%
%ADD13RoundRect,0.160000X0.197500X0.160000X-0.197500X0.160000X-0.197500X-0.160000X0.197500X-0.160000X0*%
%TD*%
%TA.AperFunction,SMDPad,CuDef*%
%ADD14RoundRect,0.160000X-0.160000X0.222500X-0.160000X-0.222500X0.160000X-0.222500X0.160000X0.222500X0*%
%TD*%
%TA.AperFunction,SMDPad,CuDef*%
%ADD15RoundRect,0.160000X-0.197500X-0.160000X0.197500X-0.160000X0.197500X0.160000X-0.197500X0.160000X0*%
%TD*%
%TA.AperFunction,SMDPad,CuDef*%
%ADD16RoundRect,0.155000X-0.212500X-0.155000X0.212500X-0.155000X0.212500X0.155000X-0.212500X0.155000X0*%
%TD*%
%TA.AperFunction,SMDPad,CuDef*%
%ADD17R,5.080000X1.500000*%
%TD*%
%TA.AperFunction,SMDPad,CuDef*%
%ADD18RoundRect,0.160000X0.160000X-0.197500X0.160000X0.197500X-0.160000X0.197500X-0.160000X-0.197500X0*%
%TD*%
%TA.AperFunction,SMDPad,CuDef*%
%ADD19RoundRect,0.160000X-0.222500X-0.160000X0.222500X-0.160000X0.222500X0.160000X-0.222500X0.160000X0*%
%TD*%
%TA.AperFunction,SMDPad,CuDef*%
%ADD20R,0.500000X0.930000*%
%TD*%
%TA.AperFunction,SMDPad,CuDef*%
%ADD21R,0.800000X0.930000*%
%TD*%
%TA.AperFunction,ViaPad*%
%ADD22C,0.600000*%
%TD*%
%TA.AperFunction,Conductor*%
%ADD23C,0.960000*%
%TD*%
G04 APERTURE END LIST*
D10*
%TO.N,GND*%
X56646250Y-64500000D02*
X56646250Y-66000000D01*
%TO.N,VDD*%
D11*
X64500000Y-41000000D02*
X69500000Y-41000000D01*
X69500000Y-50000000D01*
X64500000Y-50000000D01*
X64500000Y-41000000D01*
%TA.AperFunction,Conductor*%
G36*
X64500000Y-41000000D02*
G01*
X69500000Y-41000000D01*
X69500000Y-50000000D01*
X64500000Y-50000000D01*
X64500000Y-41000000D01*
G37*
%TD.AperFunction*%
%TD*%
D12*
%TO.P,C2,1*%
%TO.N,GND*%
X68067500Y-53500000D03*
%TO.P,C2,2*%
%TO.N,VDD*%
X66932500Y-53500000D03*
%TD*%
%TO.P,C1,1*%
%TO.N,GND*%
X68067500Y-52000000D03*
%TO.P,C1,2*%
%TO.N,VDD*%
X66932500Y-52000000D03*
%TD*%
%TO.P,C3,1*%
%TO.N,GND*%
X68067500Y-55000000D03*
%TO.P,C3,2*%
%TO.N,VDD*%
X66932500Y-55000000D03*
%TD*%
D13*
%TO.P,R5,1*%
%TO.N,Net-(Q1-Pad1)*%
X63960000Y-63250000D03*
%TO.P,R5,2*%
%TO.N,Net-(C4-Pad2)*%
X62765000Y-63250000D03*
%TD*%
D14*
%TO.P,L2,1,1*%
%TO.N,Net-(L2-Pad1)*%
X66862500Y-58677500D03*
%TO.P,L2,2,2*%
%TO.N,Net-(C6-Pad1)*%
X66862500Y-59822500D03*
%TD*%
D15*
%TO.P,R6,1*%
%TO.N,Net-(C4-Pad2)*%
X62765000Y-58750000D03*
%TO.P,R6,2*%
%TO.N,Net-(L2-Pad1)*%
X63960000Y-58750000D03*
%TD*%
D16*
%TO.P,C6,1*%
%TO.N,Net-(C6-Pad1)*%
X68295000Y-61250000D03*
%TO.P,C6,2*%
%TO.N,/Biased Transistor/Output*%
X69430000Y-61250000D03*
%TD*%
D17*
%TO.P,J2,1,In*%
%TO.N,/Output matching netv\u00E6rk/Output*%
X76000000Y-61250000D03*
%TO.P,J2,2,Ext*%
%TO.N,GND*%
X76000000Y-57000000D03*
X76000000Y-65500000D03*
%TD*%
D14*
%TO.P,L1,1,1*%
%TO.N,/Input matching netv\u00E6rk/Input*%
X56646250Y-63250000D03*
%TO.P,L1,2,2*%
%TO.N,GND*%
X56646250Y-64395000D03*
%TD*%
D17*
%TO.P,J1,1,In*%
%TO.N,/Input matching netv\u00E6rk/Input*%
X52500000Y-63250000D03*
%TO.P,J1,2,Ext*%
%TO.N,GND*%
X52500000Y-67500000D03*
X52500000Y-59000000D03*
%TD*%
D16*
%TO.P,C5,1*%
%TO.N,/Input matching netv\u00E6rk/Input*%
X58227500Y-63250000D03*
%TO.P,C5,2*%
%TO.N,/Biased Transistor/Input*%
X59362500Y-63250000D03*
%TD*%
D18*
%TO.P,R8,1*%
%TO.N,Net-(L2-Pad1)*%
X66862500Y-57347500D03*
%TO.P,R8,2*%
%TO.N,VDD*%
X66862500Y-56152500D03*
%TD*%
D16*
%TO.P,C4,1*%
%TO.N,/Biased Transistor/Input*%
X60578750Y-63250000D03*
%TO.P,C4,2*%
%TO.N,Net-(C4-Pad2)*%
X61713750Y-63250000D03*
%TD*%
D19*
%TO.P,L3,1,1*%
%TO.N,/Biased Transistor/Output*%
X70790000Y-61250000D03*
%TO.P,L3,2,2*%
%TO.N,/Output matching netv\u00E6rk/Output*%
X71935000Y-61250000D03*
%TD*%
D20*
%TO.P,Q1,1*%
%TO.N,Net-(Q1-Pad1)*%
X65562500Y-63250000D03*
D21*
%TO.P,Q1,2*%
%TO.N,GND*%
X66712500Y-63250000D03*
D20*
%TO.P,Q1,3*%
%TO.N,Net-(C6-Pad1)*%
X66862500Y-61250000D03*
%TO.P,Q1,4*%
%TO.N,GND*%
X65562500Y-61250000D03*
%TD*%
D22*
%TO.N,GND*%
X61000000Y-66000000D03*
X69500000Y-53500000D03*
X65500000Y-54000000D03*
X67500000Y-64500000D03*
X56000000Y-60500000D03*
X69500000Y-55000000D03*
X56000000Y-66000000D03*
X65500000Y-57500000D03*
X63500000Y-64500000D03*
X61000000Y-60500000D03*
X68000000Y-60000000D03*
X61000000Y-57500000D03*
X65500000Y-52000000D03*
X72500000Y-58500000D03*
X68000000Y-62500000D03*
X72500000Y-64000000D03*
X68000000Y-56000000D03*
X69500000Y-52000000D03*
%TD*%
D23*
%TO.N,Net-(C4-Pad2)*%
X62765000Y-58750000D02*
X62765000Y-63250000D01*
X61713750Y-63250000D02*
X62765000Y-63250000D01*
D10*
%TO.N,Net-(L2-Pad1)*%
X63960000Y-58750000D02*
X66790000Y-58750000D01*
X66862500Y-58677500D02*
X66862500Y-57347500D01*
D11*
X63862500Y-58847500D02*
X63765000Y-58750000D01*
X66790000Y-58750000D02*
X66862500Y-58677500D01*
D10*
%TO.N,VDD*%
X66932500Y-52000000D02*
X66932500Y-50067500D01*
D11*
X66862500Y-54817500D02*
X66795000Y-54750000D01*
D10*
X66932500Y-55000000D02*
X66932500Y-53500000D01*
D11*
X66862500Y-55070000D02*
X66932500Y-55000000D01*
D10*
X66862500Y-56152500D02*
X66862500Y-55070000D01*
D11*
X66932500Y-41067500D02*
X67000000Y-41000000D01*
D10*
X66932500Y-53500000D02*
X66932500Y-52000000D01*
%TO.N,Net-(C6-Pad1)*%
X66862500Y-59822500D02*
X66862500Y-61250000D01*
X66862500Y-61250000D02*
X68295000Y-61250000D01*
%TO.N,Net-(Q1-Pad1)*%
X63960000Y-63250000D02*
X65562500Y-63250000D01*
D23*
%TO.N,/Biased Transistor/Input*%
X59362500Y-63250000D02*
X60578750Y-63250000D01*
%TO.N,/Biased Transistor/Output*%
X69430000Y-61250000D02*
X70790000Y-61250000D01*
%TO.N,/Input matching netv\u00E6rk/Input*%
X52500000Y-63250000D02*
X56646250Y-63250000D01*
X56646250Y-63250000D02*
X58227500Y-63250000D01*
%TO.N,/Output matching netv\u00E6rk/Output*%
X71935000Y-61250000D02*
X76000000Y-61250000D01*
%TD*%
%TA.AperFunction,Conductor*%
%TO.N,GND*%
G36*
X68808500Y-62020652D02*
G01*
X68842118Y-62036427D01*
X68944891Y-62105098D01*
X68989696Y-62158710D01*
X69000000Y-62208200D01*
X69000000Y-63500000D01*
X77875500Y-63500000D01*
X77942539Y-63519685D01*
X77988294Y-63572489D01*
X77999500Y-63624000D01*
X77999500Y-64126000D01*
X77979815Y-64193039D01*
X77927011Y-64238794D01*
X77875500Y-64250000D01*
X76250000Y-64250000D01*
X76250000Y-66750000D01*
X77875500Y-66750000D01*
X77942539Y-66769685D01*
X77988294Y-66822489D01*
X77999500Y-66874000D01*
X77999500Y-71875500D01*
X77979815Y-71942539D01*
X77927011Y-71988294D01*
X77875500Y-71999500D01*
X50624500Y-71999500D01*
X50557461Y-71979815D01*
X50511706Y-71927011D01*
X50500500Y-71875500D01*
X50500500Y-68874000D01*
X50520185Y-68806961D01*
X50572989Y-68761206D01*
X50624500Y-68750000D01*
X52250000Y-68750000D01*
X52750000Y-68750000D01*
X55087828Y-68750000D01*
X55087844Y-68749999D01*
X55147372Y-68743598D01*
X55147379Y-68743596D01*
X55282086Y-68693354D01*
X55282093Y-68693350D01*
X55397187Y-68607190D01*
X55397190Y-68607187D01*
X55483350Y-68492093D01*
X55483354Y-68492086D01*
X55533596Y-68357379D01*
X55533598Y-68357372D01*
X55539999Y-68297844D01*
X55540000Y-68297827D01*
X55540000Y-67750000D01*
X52750000Y-67750000D01*
X52750000Y-68750000D01*
X52250000Y-68750000D01*
X52250000Y-67250000D01*
X52750000Y-67250000D01*
X55540000Y-67250000D01*
X55540000Y-66702172D01*
X55539999Y-66702155D01*
X55533598Y-66642627D01*
X55533596Y-66642620D01*
X55483354Y-66507913D01*
X55483350Y-66507906D01*
X55397190Y-66392812D01*
X55397187Y-66392809D01*
X55282093Y-66306649D01*
X55282086Y-66306645D01*
X55258489Y-66297844D01*
X72960000Y-66297844D01*
X72966401Y-66357372D01*
X72966403Y-66357379D01*
X73016645Y-66492086D01*
X73016649Y-66492093D01*
X73102809Y-66607187D01*
X73102812Y-66607190D01*
X73217906Y-66693350D01*
X73217913Y-66693354D01*
X73352620Y-66743596D01*
X73352627Y-66743598D01*
X73412155Y-66749999D01*
X73412172Y-66750000D01*
X75750000Y-66750000D01*
X75750000Y-65750000D01*
X72960000Y-65750000D01*
X72960000Y-66297844D01*
X55258489Y-66297844D01*
X55147379Y-66256403D01*
X55147372Y-66256401D01*
X55087844Y-66250000D01*
X52750000Y-66250000D01*
X52750000Y-67250000D01*
X52250000Y-67250000D01*
X52250000Y-66250000D01*
X50624500Y-66250000D01*
X50557461Y-66230315D01*
X50511706Y-66177511D01*
X50500500Y-66126000D01*
X50500500Y-65624000D01*
X50520185Y-65556961D01*
X50572989Y-65511206D01*
X50624500Y-65500000D01*
X63000000Y-65500000D01*
X63000000Y-64702155D01*
X72960000Y-64702155D01*
X72960000Y-65250000D01*
X75750000Y-65250000D01*
X75750000Y-64250000D01*
X73412155Y-64250000D01*
X73352627Y-64256401D01*
X73352620Y-64256403D01*
X73217913Y-64306645D01*
X73217906Y-64306649D01*
X73102812Y-64392809D01*
X73102809Y-64392812D01*
X73016649Y-64507906D01*
X73016645Y-64507913D01*
X72966403Y-64642620D01*
X72966401Y-64642627D01*
X72960000Y-64702155D01*
X63000000Y-64702155D01*
X63000000Y-64296799D01*
X63019685Y-64229760D01*
X63072489Y-64184005D01*
X63076548Y-64182238D01*
X63113706Y-64166847D01*
X63161139Y-64147199D01*
X63229434Y-64118911D01*
X63229434Y-64118910D01*
X63229441Y-64118908D01*
X63229446Y-64118904D01*
X63229449Y-64118903D01*
X63299359Y-64072190D01*
X63368323Y-64026109D01*
X63434998Y-64005231D01*
X63482140Y-64014912D01*
X63482269Y-64014501D01*
X63486390Y-64015785D01*
X63488113Y-64016139D01*
X63489422Y-64016727D01*
X63489431Y-64016733D01*
X63642567Y-64064452D01*
X63709119Y-64070500D01*
X63864745Y-64070499D01*
X63864753Y-64070500D01*
X63879188Y-64070500D01*
X64910949Y-64070500D01*
X64977988Y-64090185D01*
X64985260Y-64095233D01*
X65070169Y-64158796D01*
X65070171Y-64158797D01*
X65091755Y-64166847D01*
X65205017Y-64209091D01*
X65264627Y-64215500D01*
X65860372Y-64215499D01*
X65919983Y-64209091D01*
X66019882Y-64171830D01*
X66089572Y-64166847D01*
X66106547Y-64171831D01*
X66205120Y-64208596D01*
X66205127Y-64208598D01*
X66264655Y-64214999D01*
X66264672Y-64215000D01*
X66462500Y-64215000D01*
X66962500Y-64215000D01*
X67160328Y-64215000D01*
X67160344Y-64214999D01*
X67219872Y-64208598D01*
X67219879Y-64208596D01*
X67354586Y-64158354D01*
X67354593Y-64158350D01*
X67469687Y-64072190D01*
X67469690Y-64072187D01*
X67555850Y-63957093D01*
X67555854Y-63957086D01*
X67606096Y-63822379D01*
X67606098Y-63822372D01*
X67612499Y-63762844D01*
X67612500Y-63762827D01*
X67612500Y-63500000D01*
X66962500Y-63500000D01*
X66962500Y-64215000D01*
X66462500Y-64215000D01*
X66462500Y-63374000D01*
X66482185Y-63306961D01*
X66534989Y-63261206D01*
X66586500Y-63250000D01*
X66712500Y-63250000D01*
X66712500Y-63124000D01*
X66732185Y-63056961D01*
X66784989Y-63011206D01*
X66836500Y-63000000D01*
X67612500Y-63000000D01*
X67612500Y-62737172D01*
X67612499Y-62737155D01*
X67606098Y-62677627D01*
X67606096Y-62677620D01*
X67555854Y-62542913D01*
X67555850Y-62542906D01*
X67469690Y-62427813D01*
X67365184Y-62349579D01*
X67349347Y-62328423D01*
X67330663Y-62309739D01*
X67328738Y-62300892D01*
X67323313Y-62293645D01*
X67321427Y-62267286D01*
X67315811Y-62241466D01*
X67318974Y-62232983D01*
X67318329Y-62223953D01*
X67330994Y-62200758D01*
X67340228Y-62176002D01*
X67349665Y-62166564D01*
X67351814Y-62162630D01*
X67365185Y-62151045D01*
X67439741Y-62095233D01*
X67505205Y-62070816D01*
X67514051Y-62070500D01*
X68375813Y-62070500D01*
X68414109Y-62062882D01*
X68438302Y-62060499D01*
X68573690Y-62060499D01*
X68573702Y-62060499D01*
X68610858Y-62057576D01*
X68738636Y-62020453D01*
X68808500Y-62020652D01*
G37*
%TD.AperFunction*%
%TA.AperFunction,Conductor*%
G36*
X65985039Y-59590185D02*
G01*
X66030794Y-59642989D01*
X66042000Y-59694500D01*
X66042000Y-60166485D01*
X66022315Y-60233524D01*
X65969511Y-60279279D01*
X65904746Y-60289775D01*
X65860330Y-60285000D01*
X65812500Y-60285000D01*
X65812500Y-61126000D01*
X65792815Y-61193039D01*
X65740011Y-61238794D01*
X65688500Y-61250000D01*
X65562500Y-61250000D01*
X65562500Y-61376000D01*
X65542815Y-61443039D01*
X65490011Y-61488794D01*
X65438500Y-61500000D01*
X64812500Y-61500000D01*
X64812500Y-61762844D01*
X64818901Y-61822372D01*
X64818903Y-61822379D01*
X64869145Y-61957086D01*
X64869149Y-61957093D01*
X64955309Y-62072186D01*
X65059815Y-62150420D01*
X65075650Y-62171574D01*
X65094335Y-62190258D01*
X65096259Y-62199105D01*
X65101686Y-62206354D01*
X65103570Y-62232711D01*
X65109188Y-62258531D01*
X65106024Y-62267014D01*
X65106670Y-62276046D01*
X65094005Y-62299240D01*
X65084772Y-62323996D01*
X65075332Y-62333435D01*
X65073185Y-62337369D01*
X65059816Y-62348953D01*
X64985261Y-62404766D01*
X64919797Y-62429184D01*
X64910949Y-62429500D01*
X63869500Y-62429500D01*
X63802461Y-62409815D01*
X63756706Y-62357011D01*
X63745500Y-62305500D01*
X63745500Y-60737155D01*
X64812500Y-60737155D01*
X64812500Y-61000000D01*
X65312500Y-61000000D01*
X65312500Y-60285000D01*
X65264655Y-60285000D01*
X65205127Y-60291401D01*
X65205120Y-60291403D01*
X65070413Y-60341645D01*
X65070406Y-60341649D01*
X64955312Y-60427809D01*
X64955309Y-60427812D01*
X64869149Y-60542906D01*
X64869145Y-60542913D01*
X64818903Y-60677620D01*
X64818901Y-60677627D01*
X64812500Y-60737155D01*
X63745500Y-60737155D01*
X63745500Y-59694500D01*
X63765185Y-59627461D01*
X63817989Y-59581706D01*
X63869500Y-59570500D01*
X63879188Y-59570500D01*
X65918000Y-59570500D01*
X65985039Y-59590185D01*
G37*
%TD.AperFunction*%
%TA.AperFunction,Conductor*%
G36*
X63842539Y-41520185D02*
G01*
X63888294Y-41572989D01*
X63899500Y-41624500D01*
X63899500Y-50079056D01*
X63940423Y-50231783D01*
X63940426Y-50231790D01*
X64019475Y-50368709D01*
X64019479Y-50368714D01*
X64019480Y-50368716D01*
X64131284Y-50480520D01*
X64131286Y-50480521D01*
X64131290Y-50480524D01*
X64268209Y-50559573D01*
X64268216Y-50559577D01*
X64420943Y-50600500D01*
X64579057Y-50600500D01*
X65988000Y-50600500D01*
X66055039Y-50620185D01*
X66100794Y-50672989D01*
X66112000Y-50724500D01*
X66112000Y-51570563D01*
X66107076Y-51605158D01*
X66067425Y-51741635D01*
X66067423Y-51741647D01*
X66064500Y-51778789D01*
X66064500Y-52221190D01*
X66064501Y-52221215D01*
X66067424Y-52258358D01*
X66107076Y-52394840D01*
X66112000Y-52429435D01*
X66112000Y-53070563D01*
X66107076Y-53105158D01*
X66067425Y-53241635D01*
X66067423Y-53241647D01*
X66064500Y-53278789D01*
X66064500Y-53721190D01*
X66064501Y-53721215D01*
X66067424Y-53758358D01*
X66107076Y-53894840D01*
X66112000Y-53929435D01*
X66112000Y-54570563D01*
X66107076Y-54605158D01*
X66067425Y-54741635D01*
X66067423Y-54741647D01*
X66064500Y-54778789D01*
X66064500Y-54863859D01*
X66062117Y-54888050D01*
X66042000Y-54989183D01*
X66042000Y-56403388D01*
X66048046Y-56469926D01*
X66048048Y-56469933D01*
X66095765Y-56623066D01*
X66095767Y-56623070D01*
X66133719Y-56685851D01*
X66151555Y-56753406D01*
X66133719Y-56814149D01*
X66095767Y-56876929D01*
X66095765Y-56876933D01*
X66048048Y-57030065D01*
X66042000Y-57096621D01*
X66042000Y-57805500D01*
X66022315Y-57872539D01*
X65969511Y-57918294D01*
X65918000Y-57929500D01*
X63709111Y-57929500D01*
X63642573Y-57935546D01*
X63642566Y-57935548D01*
X63489436Y-57983264D01*
X63488103Y-57983865D01*
X63487038Y-57984012D01*
X63482270Y-57985498D01*
X63482022Y-57984704D01*
X63418890Y-57993427D01*
X63368323Y-57973890D01*
X63229447Y-57881095D01*
X63229434Y-57881088D01*
X63051005Y-57807181D01*
X63050993Y-57807178D01*
X62861574Y-57769500D01*
X62861571Y-57769500D01*
X62668429Y-57769500D01*
X62668426Y-57769500D01*
X62479006Y-57807178D01*
X62478994Y-57807181D01*
X62300565Y-57881088D01*
X62300552Y-57881095D01*
X62139968Y-57988395D01*
X62139964Y-57988398D01*
X62003398Y-58124964D01*
X62003395Y-58124968D01*
X61896095Y-58285552D01*
X61896088Y-58285565D01*
X61822181Y-58463994D01*
X61822178Y-58464006D01*
X61784500Y-58653424D01*
X61784500Y-60876000D01*
X61764815Y-60943039D01*
X61712011Y-60988794D01*
X61660500Y-61000000D01*
X50624500Y-61000000D01*
X50557461Y-60980315D01*
X50511706Y-60927511D01*
X50500500Y-60876000D01*
X50500500Y-60374000D01*
X50520185Y-60306961D01*
X50572989Y-60261206D01*
X50624500Y-60250000D01*
X52250000Y-60250000D01*
X52750000Y-60250000D01*
X55087828Y-60250000D01*
X55087844Y-60249999D01*
X55147372Y-60243598D01*
X55147379Y-60243596D01*
X55282086Y-60193354D01*
X55282093Y-60193350D01*
X55397187Y-60107190D01*
X55397190Y-60107187D01*
X55483350Y-59992093D01*
X55483354Y-59992086D01*
X55533596Y-59857379D01*
X55533598Y-59857372D01*
X55539999Y-59797844D01*
X55540000Y-59797827D01*
X55540000Y-59250000D01*
X52750000Y-59250000D01*
X52750000Y-60250000D01*
X52250000Y-60250000D01*
X52250000Y-58750000D01*
X52750000Y-58750000D01*
X55540000Y-58750000D01*
X55540000Y-58202172D01*
X55539999Y-58202155D01*
X55533598Y-58142627D01*
X55533596Y-58142620D01*
X55483354Y-58007913D01*
X55483350Y-58007906D01*
X55397190Y-57892812D01*
X55397187Y-57892809D01*
X55282093Y-57806649D01*
X55282086Y-57806645D01*
X55147379Y-57756403D01*
X55147372Y-57756401D01*
X55087844Y-57750000D01*
X52750000Y-57750000D01*
X52750000Y-58750000D01*
X52250000Y-58750000D01*
X52250000Y-57750000D01*
X50624500Y-57750000D01*
X50557461Y-57730315D01*
X50511706Y-57677511D01*
X50500500Y-57626000D01*
X50500500Y-41624500D01*
X50520185Y-41557461D01*
X50572989Y-41511706D01*
X50624500Y-41500500D01*
X63775500Y-41500500D01*
X63842539Y-41520185D01*
G37*
%TD.AperFunction*%
%TA.AperFunction,Conductor*%
G36*
X77942539Y-41520185D02*
G01*
X77988294Y-41572989D01*
X77999500Y-41624500D01*
X77999500Y-55626000D01*
X77979815Y-55693039D01*
X77927011Y-55738794D01*
X77875500Y-55750000D01*
X76250000Y-55750000D01*
X76250000Y-58250000D01*
X77875500Y-58250000D01*
X77942539Y-58269685D01*
X77988294Y-58322489D01*
X77999500Y-58374000D01*
X77999500Y-58876000D01*
X77979815Y-58943039D01*
X77927011Y-58988794D01*
X77875500Y-59000000D01*
X69000000Y-59000000D01*
X69000000Y-60291800D01*
X68997763Y-60299417D01*
X68999033Y-60307254D01*
X68988060Y-60332461D01*
X68980315Y-60358839D01*
X68973605Y-60365669D01*
X68971147Y-60371317D01*
X68944890Y-60394902D01*
X68842119Y-60463571D01*
X68775442Y-60484449D01*
X68738635Y-60479546D01*
X68610856Y-60442423D01*
X68573710Y-60439500D01*
X68573703Y-60439500D01*
X68438301Y-60439500D01*
X68414111Y-60437118D01*
X68375812Y-60429500D01*
X68375811Y-60429500D01*
X67807000Y-60429500D01*
X67739961Y-60409815D01*
X67694206Y-60357011D01*
X67683000Y-60305500D01*
X67683000Y-59734093D01*
X67682999Y-59734075D01*
X67682999Y-59546611D01*
X67676953Y-59480073D01*
X67676952Y-59480070D01*
X67676952Y-59480067D01*
X67629233Y-59326931D01*
X67621506Y-59314150D01*
X67603670Y-59246596D01*
X67621507Y-59185849D01*
X67629233Y-59173069D01*
X67676952Y-59019933D01*
X67683000Y-58953381D01*
X67683000Y-58756558D01*
X67683000Y-57797844D01*
X72960000Y-57797844D01*
X72966401Y-57857372D01*
X72966403Y-57857379D01*
X73016645Y-57992086D01*
X73016649Y-57992093D01*
X73102809Y-58107187D01*
X73102812Y-58107190D01*
X73217906Y-58193350D01*
X73217913Y-58193354D01*
X73352620Y-58243596D01*
X73352627Y-58243598D01*
X73412155Y-58249999D01*
X73412172Y-58250000D01*
X75750000Y-58250000D01*
X75750000Y-57250000D01*
X72960000Y-57250000D01*
X72960000Y-57797844D01*
X67683000Y-57797844D01*
X67683000Y-57266688D01*
X67683000Y-57266686D01*
X67683000Y-57259093D01*
X67682999Y-57259075D01*
X67682999Y-57096611D01*
X67676953Y-57030073D01*
X67676952Y-57030070D01*
X67676952Y-57030067D01*
X67629233Y-56876931D01*
X67591279Y-56814149D01*
X67573444Y-56746595D01*
X67591280Y-56685850D01*
X67629232Y-56623070D01*
X67629233Y-56623069D01*
X67676952Y-56469933D01*
X67683000Y-56403381D01*
X67683000Y-56233312D01*
X67683000Y-56202155D01*
X72960000Y-56202155D01*
X72960000Y-56750000D01*
X75750000Y-56750000D01*
X75750000Y-55750000D01*
X73412155Y-55750000D01*
X73352627Y-55756401D01*
X73352620Y-55756403D01*
X73217913Y-55806645D01*
X73217906Y-55806649D01*
X73102812Y-55892809D01*
X73102809Y-55892812D01*
X73016649Y-56007906D01*
X73016645Y-56007913D01*
X72966403Y-56142620D01*
X72966401Y-56142627D01*
X72960000Y-56202155D01*
X67683000Y-56202155D01*
X67683000Y-55934000D01*
X67702685Y-55866961D01*
X67755489Y-55821206D01*
X67807000Y-55810000D01*
X67817500Y-55810000D01*
X68317500Y-55810000D01*
X68346142Y-55810000D01*
X68346157Y-55809999D01*
X68383277Y-55807078D01*
X68383283Y-55807077D01*
X68542194Y-55760908D01*
X68542197Y-55760907D01*
X68684642Y-55676666D01*
X68684650Y-55676660D01*
X68801660Y-55559650D01*
X68801666Y-55559642D01*
X68885907Y-55417197D01*
X68885909Y-55417194D01*
X68932078Y-55258281D01*
X68932730Y-55250000D01*
X68317500Y-55250000D01*
X68317500Y-55810000D01*
X67817500Y-55810000D01*
X67817500Y-54750000D01*
X68317500Y-54750000D01*
X68932730Y-54750000D01*
X68932078Y-54741718D01*
X68885909Y-54582805D01*
X68885907Y-54582802D01*
X68801666Y-54440357D01*
X68801660Y-54440349D01*
X68698992Y-54337681D01*
X68665507Y-54276358D01*
X68670491Y-54206666D01*
X68698992Y-54162319D01*
X68801660Y-54059650D01*
X68801666Y-54059642D01*
X68885907Y-53917197D01*
X68885909Y-53917194D01*
X68932078Y-53758281D01*
X68932730Y-53750000D01*
X68317500Y-53750000D01*
X68317500Y-54750000D01*
X67817500Y-54750000D01*
X67817500Y-53250000D01*
X68317500Y-53250000D01*
X68932730Y-53250000D01*
X68932078Y-53241718D01*
X68885909Y-53082805D01*
X68885907Y-53082802D01*
X68801666Y-52940357D01*
X68801660Y-52940349D01*
X68698992Y-52837681D01*
X68665507Y-52776358D01*
X68670491Y-52706666D01*
X68698992Y-52662319D01*
X68801660Y-52559650D01*
X68801666Y-52559642D01*
X68885907Y-52417197D01*
X68885909Y-52417194D01*
X68932078Y-52258281D01*
X68932730Y-52250000D01*
X68317500Y-52250000D01*
X68317500Y-53250000D01*
X67817500Y-53250000D01*
X67817500Y-51750000D01*
X68317500Y-51750000D01*
X68932730Y-51750000D01*
X68932078Y-51741718D01*
X68885909Y-51582805D01*
X68885907Y-51582802D01*
X68801666Y-51440357D01*
X68801660Y-51440349D01*
X68684650Y-51323339D01*
X68684642Y-51323333D01*
X68542197Y-51239092D01*
X68542194Y-51239091D01*
X68383283Y-51192922D01*
X68383277Y-51192921D01*
X68346157Y-51190000D01*
X68317500Y-51190000D01*
X68317500Y-51750000D01*
X67817500Y-51750000D01*
X67817500Y-51190000D01*
X67789319Y-51161819D01*
X67755834Y-51100496D01*
X67753000Y-51074138D01*
X67753000Y-50724500D01*
X67772685Y-50657461D01*
X67825489Y-50611706D01*
X67877000Y-50600500D01*
X69579055Y-50600500D01*
X69579057Y-50600500D01*
X69731784Y-50559577D01*
X69868716Y-50480520D01*
X69980520Y-50368716D01*
X70059577Y-50231784D01*
X70100500Y-50079057D01*
X70100500Y-41624500D01*
X70120185Y-41557461D01*
X70172989Y-41511706D01*
X70224500Y-41500500D01*
X77875500Y-41500500D01*
X77942539Y-41520185D01*
G37*
%TD.AperFunction*%
%TD*%
M02*
