%TF.GenerationSoftware,KiCad,Pcbnew,9.0.4*%
%TF.CreationDate,2025-11-20T21:28:14+01:00*%
%TF.ProjectId,Projekt,50726f6a-656b-4742-9e6b-696361645f70,rev?*%
%TF.SameCoordinates,Original*%
%TF.FileFunction,Soldermask,Top*%
%TF.FilePolarity,Negative*%
%FSLAX46Y46*%
G04 Gerber Fmt 4.6, Leading zero omitted, Abs format (unit mm)*
G04 Created by KiCad (PCBNEW 9.0.4) date 2025-11-20 21:28:14*
%MOMM*%
%LPD*%
G01*
G04 APERTURE LIST*
G04 Aperture macros list*
%AMRoundRect*
0 Rectangle with rounded corners*
0 $1 Rounding radius*
0 $2 $3 $4 $5 $6 $7 $8 $9 X,Y pos of 4 corners*
0 Add a 4 corners polygon primitive as box body*
4,1,4,$2,$3,$4,$5,$6,$7,$8,$9,$2,$3,0*
0 Add four circle primitives for the rounded corners*
1,1,$1+$1,$2,$3*
1,1,$1+$1,$4,$5*
1,1,$1+$1,$6,$7*
1,1,$1+$1,$8,$9*
0 Add four rect primitives between the rounded corners*
20,1,$1+$1,$2,$3,$4,$5,0*
20,1,$1+$1,$4,$5,$6,$7,0*
20,1,$1+$1,$6,$7,$8,$9,0*
20,1,$1+$1,$8,$9,$2,$3,0*%
G04 Aperture macros list end*
%ADD10RoundRect,0.155000X0.212500X0.155000X-0.212500X0.155000X-0.212500X-0.155000X0.212500X-0.155000X0*%
%ADD11RoundRect,0.160000X0.197500X0.160000X-0.197500X0.160000X-0.197500X-0.160000X0.197500X-0.160000X0*%
%ADD12RoundRect,0.160000X-0.160000X0.222500X-0.160000X-0.222500X0.160000X-0.222500X0.160000X0.222500X0*%
%ADD13RoundRect,0.160000X-0.197500X-0.160000X0.197500X-0.160000X0.197500X0.160000X-0.197500X0.160000X0*%
%ADD14RoundRect,0.155000X-0.212500X-0.155000X0.212500X-0.155000X0.212500X0.155000X-0.212500X0.155000X0*%
%ADD15R,5.080000X1.500000*%
%ADD16RoundRect,0.160000X0.160000X-0.197500X0.160000X0.197500X-0.160000X0.197500X-0.160000X-0.197500X0*%
%ADD17RoundRect,0.160000X-0.222500X-0.160000X0.222500X-0.160000X0.222500X0.160000X-0.222500X0.160000X0*%
%ADD18RoundRect,0.102000X0.250000X-0.465000X0.250000X0.465000X-0.250000X0.465000X-0.250000X-0.465000X0*%
%ADD19RoundRect,0.102000X0.400000X-0.465000X0.400000X0.465000X-0.400000X0.465000X-0.400000X-0.465000X0*%
G04 APERTURE END LIST*
D10*
%TO.C,C2*%
X68067500Y-53500000D03*
X66932500Y-53500000D03*
%TD*%
%TO.C,C1*%
X68067500Y-52000000D03*
X66932500Y-52000000D03*
%TD*%
%TO.C,C3*%
X68067500Y-55000000D03*
X66932500Y-55000000D03*
%TD*%
D11*
%TO.C,R5*%
X63960000Y-63250000D03*
X62765000Y-63250000D03*
%TD*%
D12*
%TO.C,L2*%
X66862500Y-58677500D03*
X66862500Y-59822500D03*
%TD*%
D13*
%TO.C,R6*%
X62765000Y-58750000D03*
X63960000Y-58750000D03*
%TD*%
D14*
%TO.C,C6*%
X68295000Y-61250000D03*
X69430000Y-61250000D03*
%TD*%
D15*
%TO.C,J2*%
X76000000Y-61250000D03*
X76000000Y-57000000D03*
X76000000Y-65500000D03*
%TD*%
D12*
%TO.C,L1*%
X56646250Y-63250000D03*
X56646250Y-64395000D03*
%TD*%
D15*
%TO.C,J1*%
X52500000Y-63250000D03*
X52500000Y-67500000D03*
X52500000Y-59000000D03*
%TD*%
D14*
%TO.C,C5*%
X58227500Y-63250000D03*
X59362500Y-63250000D03*
%TD*%
D16*
%TO.C,R8*%
X66862500Y-57347500D03*
X66862500Y-56152500D03*
%TD*%
D14*
%TO.C,C4*%
X60578750Y-63250000D03*
X61713750Y-63250000D03*
%TD*%
D17*
%TO.C,L3*%
X70790000Y-61250000D03*
X71935000Y-61250000D03*
%TD*%
D18*
%TO.C,Q1*%
X65562500Y-63250000D03*
D19*
X66712500Y-63250000D03*
D18*
X66862500Y-61250000D03*
X65562500Y-61250000D03*
%TD*%
G36*
X69443039Y-41019685D02*
G01*
X69488794Y-41072489D01*
X69500000Y-41124000D01*
X69500000Y-49876000D01*
X69480315Y-49943039D01*
X69427511Y-49988794D01*
X69376000Y-50000000D01*
X64624000Y-50000000D01*
X64556961Y-49980315D01*
X64511206Y-49927511D01*
X64500000Y-49876000D01*
X64500000Y-41124000D01*
X64519685Y-41056961D01*
X64572489Y-41011206D01*
X64624000Y-41000000D01*
X69376000Y-41000000D01*
X69443039Y-41019685D01*
G37*
G36*
X59443039Y-41019685D02*
G01*
X59488794Y-41072489D01*
X59500000Y-41124000D01*
X59500000Y-49876000D01*
X59480315Y-49943039D01*
X59427511Y-49988794D01*
X59376000Y-50000000D01*
X54624000Y-50000000D01*
X54556961Y-49980315D01*
X54511206Y-49927511D01*
X54500000Y-49876000D01*
X54500000Y-41124000D01*
X54519685Y-41056961D01*
X54572489Y-41011206D01*
X54624000Y-41000000D01*
X59376000Y-41000000D01*
X59443039Y-41019685D01*
G37*
M02*
