M48
; DRILL file {KiCad 9.0.4} date 2025-11-21T11:31:37+0100
; FORMAT={-:-/ absolute / metric / decimal}
; #@! TF.CreationDate,2025-11-21T11:31:37+01:00
; #@! TF.GenerationSoftware,Kicad,Pcbnew,9.0.4
; #@! TF.FileFunction,Plated,1,2,PTH
FMAT,2
METRIC
; #@! TA.AperFunction,Plated,PTH,ViaDrill
T1C0.300
; #@! TA.AperFunction,Plated,PTH,ComponentDrill
T2C1.600
%
G90
G05
T1
X57.0Y-60.5
X58.0Y-66.0
X61.0Y-57.5
X61.0Y-60.5
X61.0Y-66.0
X63.5Y-64.5
X65.5Y-52.0
X65.5Y-54.0
X65.5Y-57.5
X67.5Y-64.5
X68.0Y-56.0
X68.0Y-60.0
X68.0Y-62.5
X69.5Y-52.0
X69.5Y-53.5
X69.5Y-55.0
X72.5Y-58.5
X72.5Y-64.0
T2
X50.0Y-60.71
X50.0Y-65.79
X52.54Y-63.25
X55.08Y-60.71
X55.08Y-65.79
X73.46Y-58.71
X73.46Y-63.79
X76.0Y-61.25
X78.54Y-58.71
X78.54Y-63.79
M30
