%TF.GenerationSoftware,KiCad,Pcbnew,9.0.4*%
%TF.CreationDate,2025-11-21T11:31:44+01:00*%
%TF.ProjectId,Projekt,50726f6a-656b-4742-9e6b-696361645f70,rev?*%
%TF.SameCoordinates,Original*%
%TF.FileFunction,Copper,L2,Bot*%
%TF.FilePolarity,Positive*%
%FSLAX46Y46*%
G04 Gerber Fmt 4.6, Leading zero omitted, Abs format (unit mm)*
G04 Created by KiCad (PCBNEW 9.0.4) date 2025-11-21 11:31:44*
%MOMM*%
%LPD*%
G01*
G04 APERTURE LIST*
%TA.AperFunction,ComponentPad*%
%ADD10C,2.108200*%
%TD*%
%TA.AperFunction,ViaPad*%
%ADD11C,0.600000*%
%TD*%
G04 APERTURE END LIST*
D10*
%TO.P,J2,5*%
%TO.N,N/C*%
X78540000Y-58710000D03*
%TO.P,J2,4*%
X78540000Y-63790000D03*
%TO.P,J2,3*%
X73460000Y-63790000D03*
%TO.P,J2,2,Ext*%
%TO.N,GND*%
X73460000Y-58710000D03*
%TO.P,J2,1,In*%
%TO.N,/Output matching netv\u00E6rk/Output*%
X76000000Y-61250000D03*
%TD*%
%TO.P,J1,1,In*%
%TO.N,/Input matching netv\u00E6rk/Input*%
X52540000Y-63250000D03*
%TO.P,J1,2,Ext*%
%TO.N,GND*%
X55080000Y-65790000D03*
%TO.P,J1,3*%
%TO.N,N/C*%
X55080000Y-60710000D03*
%TO.P,J1,4*%
X50000000Y-60710000D03*
%TO.P,J1,5*%
X50000000Y-65790000D03*
%TD*%
D11*
%TO.N,GND*%
X61000000Y-66000000D03*
X69500000Y-53500000D03*
X65500000Y-54000000D03*
X67500000Y-64500000D03*
X57000000Y-60500000D03*
X69500000Y-55000000D03*
X58000000Y-66000000D03*
X65500000Y-57500000D03*
X63500000Y-64500000D03*
X61000000Y-60500000D03*
X68000000Y-60000000D03*
X61000000Y-57500000D03*
X65500000Y-52000000D03*
X72500000Y-58500000D03*
X68000000Y-62500000D03*
X72500000Y-64000000D03*
X68000000Y-56000000D03*
X69500000Y-52000000D03*
%TD*%
%TA.AperFunction,Conductor*%
%TO.N,GND*%
G36*
X80442539Y-41020185D02*
G01*
X80488294Y-41072989D01*
X80499500Y-41124500D01*
X80499500Y-72375500D01*
X80479815Y-72442539D01*
X80427011Y-72488294D01*
X80375500Y-72499500D01*
X48124500Y-72499500D01*
X48057461Y-72479815D01*
X48011706Y-72427011D01*
X48000500Y-72375500D01*
X48000500Y-65667650D01*
X48445400Y-65667650D01*
X48445400Y-65912349D01*
X48483680Y-66154037D01*
X48483680Y-66154040D01*
X48559294Y-66386756D01*
X48559296Y-66386759D01*
X48670387Y-66604788D01*
X48814218Y-66802754D01*
X48987246Y-66975782D01*
X49185212Y-67119613D01*
X49403241Y-67230704D01*
X49403243Y-67230705D01*
X49620311Y-67301234D01*
X49635964Y-67306320D01*
X49877650Y-67344600D01*
X49877651Y-67344600D01*
X50122349Y-67344600D01*
X50122350Y-67344600D01*
X50364036Y-67306320D01*
X50364039Y-67306319D01*
X50364040Y-67306319D01*
X50596756Y-67230705D01*
X50596756Y-67230704D01*
X50596759Y-67230704D01*
X50814788Y-67119613D01*
X51012754Y-66975782D01*
X51185782Y-66802754D01*
X51329613Y-66604788D01*
X51440704Y-66386759D01*
X51468883Y-66300034D01*
X51516319Y-66154040D01*
X51516319Y-66154039D01*
X51516320Y-66154036D01*
X51554600Y-65912350D01*
X51554600Y-65667684D01*
X53525900Y-65667684D01*
X53525900Y-65912315D01*
X53564166Y-66153919D01*
X53639761Y-66386571D01*
X53750814Y-66604526D01*
X53818609Y-66697836D01*
X53818609Y-66697837D01*
X54364076Y-66152369D01*
X54370961Y-66168989D01*
X54458522Y-66300034D01*
X54569966Y-66411478D01*
X54701011Y-66499039D01*
X54717629Y-66505922D01*
X54172161Y-67051389D01*
X54265473Y-67119185D01*
X54483428Y-67230238D01*
X54716080Y-67305833D01*
X54957685Y-67344100D01*
X55202315Y-67344100D01*
X55443919Y-67305833D01*
X55676571Y-67230238D01*
X55894526Y-67119185D01*
X55987836Y-67051389D01*
X55442369Y-66505922D01*
X55458989Y-66499039D01*
X55590034Y-66411478D01*
X55701478Y-66300034D01*
X55789039Y-66168989D01*
X55795922Y-66152370D01*
X56341389Y-66697837D01*
X56341389Y-66697836D01*
X56409185Y-66604526D01*
X56520238Y-66386571D01*
X56595833Y-66153919D01*
X56634100Y-65912315D01*
X56634100Y-65667684D01*
X56595833Y-65426080D01*
X56520238Y-65193428D01*
X56409185Y-64975473D01*
X56341389Y-64882162D01*
X56341389Y-64882161D01*
X55795922Y-65427628D01*
X55789039Y-65411011D01*
X55701478Y-65279966D01*
X55590034Y-65168522D01*
X55458989Y-65080961D01*
X55442368Y-65074076D01*
X55987837Y-64528609D01*
X55894526Y-64460814D01*
X55676571Y-64349761D01*
X55443919Y-64274166D01*
X55202315Y-64235900D01*
X54957685Y-64235900D01*
X54716080Y-64274166D01*
X54483428Y-64349761D01*
X54265469Y-64460816D01*
X54172162Y-64528607D01*
X54172161Y-64528609D01*
X54717629Y-65074077D01*
X54701011Y-65080961D01*
X54569966Y-65168522D01*
X54458522Y-65279966D01*
X54370961Y-65411011D01*
X54364077Y-65427629D01*
X53818609Y-64882161D01*
X53818607Y-64882162D01*
X53750816Y-64975469D01*
X53639761Y-65193428D01*
X53564166Y-65426080D01*
X53525900Y-65667684D01*
X51554600Y-65667684D01*
X51554600Y-65667650D01*
X51516320Y-65425964D01*
X51516319Y-65425960D01*
X51516319Y-65425959D01*
X51440705Y-65193243D01*
X51440703Y-65193240D01*
X51403189Y-65119613D01*
X51329613Y-64975212D01*
X51185782Y-64777246D01*
X51012754Y-64604218D01*
X50814788Y-64460387D01*
X50596759Y-64349296D01*
X50596756Y-64349294D01*
X50364038Y-64273680D01*
X50202912Y-64248160D01*
X50122350Y-64235400D01*
X49877650Y-64235400D01*
X49797088Y-64248160D01*
X49635962Y-64273680D01*
X49635959Y-64273680D01*
X49403243Y-64349294D01*
X49403240Y-64349296D01*
X49185211Y-64460387D01*
X49072265Y-64542447D01*
X48987246Y-64604218D01*
X48987244Y-64604220D01*
X48987243Y-64604220D01*
X48814220Y-64777243D01*
X48814220Y-64777244D01*
X48814218Y-64777246D01*
X48795685Y-64802755D01*
X48670387Y-64975211D01*
X48559296Y-65193240D01*
X48559294Y-65193243D01*
X48483680Y-65425959D01*
X48483680Y-65425962D01*
X48445400Y-65667650D01*
X48000500Y-65667650D01*
X48000500Y-63127650D01*
X50985400Y-63127650D01*
X50985400Y-63372350D01*
X50993892Y-63425964D01*
X51023680Y-63614037D01*
X51023680Y-63614040D01*
X51099294Y-63846756D01*
X51099296Y-63846759D01*
X51210387Y-64064788D01*
X51354218Y-64262754D01*
X51527246Y-64435782D01*
X51725212Y-64579613D01*
X51943241Y-64690704D01*
X51943243Y-64690705D01*
X52160311Y-64761234D01*
X52175964Y-64766320D01*
X52417650Y-64804600D01*
X52417651Y-64804600D01*
X52662349Y-64804600D01*
X52662350Y-64804600D01*
X52904036Y-64766320D01*
X52904039Y-64766319D01*
X52904040Y-64766319D01*
X53136756Y-64690705D01*
X53136756Y-64690704D01*
X53136759Y-64690704D01*
X53354788Y-64579613D01*
X53552754Y-64435782D01*
X53725782Y-64262754D01*
X53869613Y-64064788D01*
X53980704Y-63846759D01*
X53980705Y-63846756D01*
X54038901Y-63667650D01*
X71905400Y-63667650D01*
X71905400Y-63912349D01*
X71943680Y-64154037D01*
X71943680Y-64154040D01*
X72019294Y-64386756D01*
X72019296Y-64386759D01*
X72130387Y-64604788D01*
X72274218Y-64802754D01*
X72447246Y-64975782D01*
X72645212Y-65119613D01*
X72863241Y-65230704D01*
X72863243Y-65230705D01*
X73014854Y-65279966D01*
X73095964Y-65306320D01*
X73337650Y-65344600D01*
X73337651Y-65344600D01*
X73582349Y-65344600D01*
X73582350Y-65344600D01*
X73824036Y-65306320D01*
X73824039Y-65306319D01*
X73824040Y-65306319D01*
X74056756Y-65230705D01*
X74056756Y-65230704D01*
X74056759Y-65230704D01*
X74274788Y-65119613D01*
X74472754Y-64975782D01*
X74645782Y-64802754D01*
X74789613Y-64604788D01*
X74900704Y-64386759D01*
X74937288Y-64274166D01*
X74976319Y-64154040D01*
X74976319Y-64154039D01*
X74976320Y-64154036D01*
X75014600Y-63912350D01*
X75014600Y-63667650D01*
X76985400Y-63667650D01*
X76985400Y-63912349D01*
X77023680Y-64154037D01*
X77023680Y-64154040D01*
X77099294Y-64386756D01*
X77099296Y-64386759D01*
X77210387Y-64604788D01*
X77354218Y-64802754D01*
X77527246Y-64975782D01*
X77725212Y-65119613D01*
X77943241Y-65230704D01*
X77943243Y-65230705D01*
X78094854Y-65279966D01*
X78175964Y-65306320D01*
X78417650Y-65344600D01*
X78417651Y-65344600D01*
X78662349Y-65344600D01*
X78662350Y-65344600D01*
X78904036Y-65306320D01*
X78904039Y-65306319D01*
X78904040Y-65306319D01*
X79136756Y-65230705D01*
X79136756Y-65230704D01*
X79136759Y-65230704D01*
X79354788Y-65119613D01*
X79552754Y-64975782D01*
X79725782Y-64802754D01*
X79869613Y-64604788D01*
X79980704Y-64386759D01*
X80017288Y-64274166D01*
X80056319Y-64154040D01*
X80056319Y-64154039D01*
X80056320Y-64154036D01*
X80094600Y-63912350D01*
X80094600Y-63667650D01*
X80056320Y-63425964D01*
X80056319Y-63425960D01*
X80056319Y-63425959D01*
X79980705Y-63193243D01*
X79980703Y-63193240D01*
X79947284Y-63127650D01*
X79869613Y-62975212D01*
X79725782Y-62777246D01*
X79552754Y-62604218D01*
X79354788Y-62460387D01*
X79136759Y-62349296D01*
X79136756Y-62349294D01*
X78904038Y-62273680D01*
X78742912Y-62248160D01*
X78662350Y-62235400D01*
X78417650Y-62235400D01*
X78337088Y-62248160D01*
X78175962Y-62273680D01*
X78175959Y-62273680D01*
X77943243Y-62349294D01*
X77943240Y-62349296D01*
X77725211Y-62460387D01*
X77612265Y-62542447D01*
X77527246Y-62604218D01*
X77527244Y-62604220D01*
X77527243Y-62604220D01*
X77354220Y-62777243D01*
X77354220Y-62777244D01*
X77354218Y-62777246D01*
X77334344Y-62804600D01*
X77210387Y-62975211D01*
X77099296Y-63193240D01*
X77099294Y-63193243D01*
X77023680Y-63425959D01*
X77023680Y-63425962D01*
X76985400Y-63667650D01*
X75014600Y-63667650D01*
X74976320Y-63425964D01*
X74976319Y-63425960D01*
X74976319Y-63425959D01*
X74900705Y-63193243D01*
X74900703Y-63193240D01*
X74867284Y-63127650D01*
X74789613Y-62975212D01*
X74645782Y-62777246D01*
X74472754Y-62604218D01*
X74274788Y-62460387D01*
X74056759Y-62349296D01*
X74056756Y-62349294D01*
X73824038Y-62273680D01*
X73662912Y-62248160D01*
X73582350Y-62235400D01*
X73337650Y-62235400D01*
X73257088Y-62248160D01*
X73095962Y-62273680D01*
X73095959Y-62273680D01*
X72863243Y-62349294D01*
X72863240Y-62349296D01*
X72645211Y-62460387D01*
X72532265Y-62542447D01*
X72447246Y-62604218D01*
X72447244Y-62604220D01*
X72447243Y-62604220D01*
X72274220Y-62777243D01*
X72274220Y-62777244D01*
X72274218Y-62777246D01*
X72254344Y-62804600D01*
X72130387Y-62975211D01*
X72019296Y-63193240D01*
X72019294Y-63193243D01*
X71943680Y-63425959D01*
X71943680Y-63425962D01*
X71905400Y-63667650D01*
X54038901Y-63667650D01*
X54052934Y-63624460D01*
X54054912Y-63618366D01*
X54056320Y-63614036D01*
X54094600Y-63372350D01*
X54094600Y-63127650D01*
X54056320Y-62885964D01*
X54056319Y-62885960D01*
X54056319Y-62885959D01*
X53980705Y-62653243D01*
X53980703Y-62653240D01*
X53955727Y-62604220D01*
X53869613Y-62435212D01*
X53725782Y-62237246D01*
X53552754Y-62064218D01*
X53354788Y-61920387D01*
X53136759Y-61809296D01*
X53136756Y-61809294D01*
X52904038Y-61733680D01*
X52742912Y-61708160D01*
X52662350Y-61695400D01*
X52417650Y-61695400D01*
X52337088Y-61708160D01*
X52175962Y-61733680D01*
X52175959Y-61733680D01*
X51943243Y-61809294D01*
X51943240Y-61809296D01*
X51725211Y-61920387D01*
X51612265Y-62002447D01*
X51527246Y-62064218D01*
X51527244Y-62064220D01*
X51527243Y-62064220D01*
X51354220Y-62237243D01*
X51354220Y-62237244D01*
X51354218Y-62237246D01*
X51335685Y-62262755D01*
X51210387Y-62435211D01*
X51099296Y-62653240D01*
X51099294Y-62653243D01*
X51023680Y-62885959D01*
X51023680Y-62885962D01*
X51023680Y-62885964D01*
X50985400Y-63127650D01*
X48000500Y-63127650D01*
X48000500Y-60587650D01*
X48445400Y-60587650D01*
X48445400Y-60832350D01*
X48453892Y-60885964D01*
X48483680Y-61074037D01*
X48483680Y-61074040D01*
X48559294Y-61306756D01*
X48559296Y-61306759D01*
X48670387Y-61524788D01*
X48814218Y-61722754D01*
X48987246Y-61895782D01*
X49185212Y-62039613D01*
X49403241Y-62150704D01*
X49403243Y-62150705D01*
X49620311Y-62221234D01*
X49635964Y-62226320D01*
X49877650Y-62264600D01*
X49877651Y-62264600D01*
X50122349Y-62264600D01*
X50122350Y-62264600D01*
X50364036Y-62226320D01*
X50364039Y-62226319D01*
X50364040Y-62226319D01*
X50596756Y-62150705D01*
X50596756Y-62150704D01*
X50596759Y-62150704D01*
X50814788Y-62039613D01*
X51012754Y-61895782D01*
X51185782Y-61722754D01*
X51329613Y-61524788D01*
X51440704Y-61306759D01*
X51516320Y-61074036D01*
X51554600Y-60832350D01*
X51554600Y-60587650D01*
X53525400Y-60587650D01*
X53525400Y-60832350D01*
X53533892Y-60885964D01*
X53563680Y-61074037D01*
X53563680Y-61074040D01*
X53639294Y-61306756D01*
X53639296Y-61306759D01*
X53750387Y-61524788D01*
X53894218Y-61722754D01*
X54067246Y-61895782D01*
X54265212Y-62039613D01*
X54483241Y-62150704D01*
X54483243Y-62150705D01*
X54700311Y-62221234D01*
X54715964Y-62226320D01*
X54957650Y-62264600D01*
X54957651Y-62264600D01*
X55202349Y-62264600D01*
X55202350Y-62264600D01*
X55444036Y-62226320D01*
X55444039Y-62226319D01*
X55444040Y-62226319D01*
X55676756Y-62150705D01*
X55676756Y-62150704D01*
X55676759Y-62150704D01*
X55894788Y-62039613D01*
X56092754Y-61895782D01*
X56265782Y-61722754D01*
X56409613Y-61524788D01*
X56520704Y-61306759D01*
X56520705Y-61306756D01*
X56578901Y-61127650D01*
X74445400Y-61127650D01*
X74445400Y-61372349D01*
X74483680Y-61614037D01*
X74483680Y-61614040D01*
X74559294Y-61846756D01*
X74559296Y-61846759D01*
X74670387Y-62064788D01*
X74814218Y-62262754D01*
X74987246Y-62435782D01*
X75185212Y-62579613D01*
X75403241Y-62690704D01*
X75403243Y-62690705D01*
X75620311Y-62761234D01*
X75635964Y-62766320D01*
X75877650Y-62804600D01*
X75877651Y-62804600D01*
X76122349Y-62804600D01*
X76122350Y-62804600D01*
X76364036Y-62766320D01*
X76364039Y-62766319D01*
X76364040Y-62766319D01*
X76596756Y-62690705D01*
X76596756Y-62690704D01*
X76596759Y-62690704D01*
X76814788Y-62579613D01*
X77012754Y-62435782D01*
X77185782Y-62262754D01*
X77329613Y-62064788D01*
X77440704Y-61846759D01*
X77452877Y-61809294D01*
X77516319Y-61614040D01*
X77516319Y-61614039D01*
X77516320Y-61614036D01*
X77554600Y-61372350D01*
X77554600Y-61127650D01*
X77516320Y-60885964D01*
X77516319Y-60885960D01*
X77516319Y-60885959D01*
X77440705Y-60653243D01*
X77440703Y-60653240D01*
X77407284Y-60587650D01*
X77329613Y-60435212D01*
X77185782Y-60237246D01*
X77012754Y-60064218D01*
X76814788Y-59920387D01*
X76596759Y-59809296D01*
X76596756Y-59809294D01*
X76364038Y-59733680D01*
X76202912Y-59708160D01*
X76122350Y-59695400D01*
X75877650Y-59695400D01*
X75797088Y-59708160D01*
X75635962Y-59733680D01*
X75635959Y-59733680D01*
X75403243Y-59809294D01*
X75403240Y-59809296D01*
X75185211Y-59920387D01*
X75115014Y-59971389D01*
X74987246Y-60064218D01*
X74987244Y-60064220D01*
X74987243Y-60064220D01*
X74814220Y-60237243D01*
X74814220Y-60237244D01*
X74814218Y-60237246D01*
X74794344Y-60264600D01*
X74670387Y-60435211D01*
X74559296Y-60653240D01*
X74559294Y-60653243D01*
X74483680Y-60885959D01*
X74483680Y-60885962D01*
X74445400Y-61127650D01*
X56578901Y-61127650D01*
X56592934Y-61084460D01*
X56594912Y-61078366D01*
X56596320Y-61074036D01*
X56634600Y-60832350D01*
X56634600Y-60587650D01*
X56596320Y-60345964D01*
X56596319Y-60345960D01*
X56596319Y-60345959D01*
X56520705Y-60113243D01*
X56520703Y-60113240D01*
X56495726Y-60064220D01*
X56409613Y-59895212D01*
X56265782Y-59697246D01*
X56092754Y-59524218D01*
X55894788Y-59380387D01*
X55676759Y-59269296D01*
X55676756Y-59269294D01*
X55444038Y-59193680D01*
X55282912Y-59168160D01*
X55202350Y-59155400D01*
X54957650Y-59155400D01*
X54877088Y-59168160D01*
X54715962Y-59193680D01*
X54715959Y-59193680D01*
X54483243Y-59269294D01*
X54483240Y-59269296D01*
X54265211Y-59380387D01*
X54212012Y-59419039D01*
X54067246Y-59524218D01*
X54067244Y-59524220D01*
X54067243Y-59524220D01*
X53894220Y-59697243D01*
X53894220Y-59697244D01*
X53894218Y-59697246D01*
X53875685Y-59722755D01*
X53750387Y-59895211D01*
X53639296Y-60113240D01*
X53639294Y-60113243D01*
X53563680Y-60345959D01*
X53563680Y-60345962D01*
X53563680Y-60345964D01*
X53525400Y-60587650D01*
X51554600Y-60587650D01*
X51516320Y-60345964D01*
X51516319Y-60345960D01*
X51516319Y-60345959D01*
X51440705Y-60113243D01*
X51440703Y-60113240D01*
X51415727Y-60064220D01*
X51329613Y-59895212D01*
X51185782Y-59697246D01*
X51012754Y-59524218D01*
X50814788Y-59380387D01*
X50596759Y-59269296D01*
X50596756Y-59269294D01*
X50364038Y-59193680D01*
X50202912Y-59168160D01*
X50122350Y-59155400D01*
X49877650Y-59155400D01*
X49797088Y-59168160D01*
X49635962Y-59193680D01*
X49635959Y-59193680D01*
X49403243Y-59269294D01*
X49403240Y-59269296D01*
X49185211Y-59380387D01*
X49132012Y-59419039D01*
X48987246Y-59524218D01*
X48987244Y-59524220D01*
X48987243Y-59524220D01*
X48814220Y-59697243D01*
X48814220Y-59697244D01*
X48814218Y-59697246D01*
X48795685Y-59722755D01*
X48670387Y-59895211D01*
X48559296Y-60113240D01*
X48559294Y-60113243D01*
X48483680Y-60345959D01*
X48483680Y-60345962D01*
X48483680Y-60345964D01*
X48445400Y-60587650D01*
X48000500Y-60587650D01*
X48000500Y-58587684D01*
X71905900Y-58587684D01*
X71905900Y-58832315D01*
X71944166Y-59073919D01*
X72019761Y-59306571D01*
X72130814Y-59524526D01*
X72198609Y-59617836D01*
X72198609Y-59617837D01*
X72744076Y-59072369D01*
X72750961Y-59088989D01*
X72838522Y-59220034D01*
X72949966Y-59331478D01*
X73081011Y-59419039D01*
X73097629Y-59425922D01*
X72552161Y-59971389D01*
X72645473Y-60039185D01*
X72863428Y-60150238D01*
X73096080Y-60225833D01*
X73337685Y-60264100D01*
X73582315Y-60264100D01*
X73823919Y-60225833D01*
X74056571Y-60150238D01*
X74274526Y-60039185D01*
X74367836Y-59971389D01*
X73822369Y-59425922D01*
X73838989Y-59419039D01*
X73970034Y-59331478D01*
X74081478Y-59220034D01*
X74169039Y-59088989D01*
X74175922Y-59072370D01*
X74721389Y-59617837D01*
X74721389Y-59617836D01*
X74789185Y-59524526D01*
X74900238Y-59306571D01*
X74975833Y-59073919D01*
X75014100Y-58832315D01*
X75014100Y-58587684D01*
X75014095Y-58587650D01*
X76985400Y-58587650D01*
X76985400Y-58832349D01*
X77023680Y-59074037D01*
X77023680Y-59074040D01*
X77099294Y-59306756D01*
X77099296Y-59306759D01*
X77210387Y-59524788D01*
X77354218Y-59722754D01*
X77527246Y-59895782D01*
X77725212Y-60039613D01*
X77943241Y-60150704D01*
X77943243Y-60150705D01*
X78160311Y-60221234D01*
X78175964Y-60226320D01*
X78417650Y-60264600D01*
X78417651Y-60264600D01*
X78662349Y-60264600D01*
X78662350Y-60264600D01*
X78904036Y-60226320D01*
X78904039Y-60226319D01*
X78904040Y-60226319D01*
X79136756Y-60150705D01*
X79136756Y-60150704D01*
X79136759Y-60150704D01*
X79354788Y-60039613D01*
X79552754Y-59895782D01*
X79725782Y-59722754D01*
X79869613Y-59524788D01*
X79980704Y-59306759D01*
X80008883Y-59220034D01*
X80056319Y-59074040D01*
X80056319Y-59074039D01*
X80056320Y-59074036D01*
X80094600Y-58832350D01*
X80094600Y-58587650D01*
X80056320Y-58345964D01*
X80056319Y-58345960D01*
X80056319Y-58345959D01*
X79980705Y-58113243D01*
X79980703Y-58113240D01*
X79923495Y-58000961D01*
X79869613Y-57895212D01*
X79725782Y-57697246D01*
X79552754Y-57524218D01*
X79354788Y-57380387D01*
X79136759Y-57269296D01*
X79136756Y-57269294D01*
X78904038Y-57193680D01*
X78742912Y-57168160D01*
X78662350Y-57155400D01*
X78417650Y-57155400D01*
X78337088Y-57168160D01*
X78175962Y-57193680D01*
X78175959Y-57193680D01*
X77943243Y-57269294D01*
X77943240Y-57269296D01*
X77725211Y-57380387D01*
X77612265Y-57462447D01*
X77527246Y-57524218D01*
X77527244Y-57524220D01*
X77527243Y-57524220D01*
X77354220Y-57697243D01*
X77354220Y-57697244D01*
X77354218Y-57697246D01*
X77292447Y-57782265D01*
X77210387Y-57895211D01*
X77099296Y-58113240D01*
X77099294Y-58113243D01*
X77023680Y-58345959D01*
X77023680Y-58345962D01*
X76985400Y-58587650D01*
X75014095Y-58587650D01*
X74975833Y-58346080D01*
X74900238Y-58113428D01*
X74789185Y-57895473D01*
X74721389Y-57802162D01*
X74721389Y-57802161D01*
X74175922Y-58347628D01*
X74169039Y-58331011D01*
X74081478Y-58199966D01*
X73970034Y-58088522D01*
X73838989Y-58000961D01*
X73822368Y-57994076D01*
X74367837Y-57448609D01*
X74274526Y-57380814D01*
X74056571Y-57269761D01*
X73823919Y-57194166D01*
X73582315Y-57155900D01*
X73337685Y-57155900D01*
X73096080Y-57194166D01*
X72863428Y-57269761D01*
X72645469Y-57380816D01*
X72552162Y-57448607D01*
X72552161Y-57448609D01*
X73097629Y-57994077D01*
X73081011Y-58000961D01*
X72949966Y-58088522D01*
X72838522Y-58199966D01*
X72750961Y-58331011D01*
X72744077Y-58347629D01*
X72198609Y-57802161D01*
X72198607Y-57802162D01*
X72130816Y-57895469D01*
X72019761Y-58113428D01*
X71944166Y-58346080D01*
X71905900Y-58587684D01*
X48000500Y-58587684D01*
X48000500Y-41124500D01*
X48020185Y-41057461D01*
X48072989Y-41011706D01*
X48124500Y-41000500D01*
X80375500Y-41000500D01*
X80442539Y-41020185D01*
G37*
%TD.AperFunction*%
%TD*%
M02*
