%TF.GenerationSoftware,KiCad,Pcbnew,9.0.4*%
%TF.CreationDate,2025-11-21T11:31:44+01:00*%
%TF.ProjectId,Projekt,50726f6a-656b-4742-9e6b-696361645f70,rev?*%
%TF.SameCoordinates,Original*%
%TF.FileFunction,Copper,L1,Top*%
%TF.FilePolarity,Positive*%
%FSLAX46Y46*%
G04 Gerber Fmt 4.6, Leading zero omitted, Abs format (unit mm)*
G04 Created by KiCad (PCBNEW 9.0.4) date 2025-11-21 11:31:44*
%MOMM*%
%LPD*%
G01*
G04 APERTURE LIST*
G04 Aperture macros list*
%AMRoundRect*
0 Rectangle with rounded corners*
0 $1 Rounding radius*
0 $2 $3 $4 $5 $6 $7 $8 $9 X,Y pos of 4 corners*
0 Add a 4 corners polygon primitive as box body*
4,1,4,$2,$3,$4,$5,$6,$7,$8,$9,$2,$3,0*
0 Add four circle primitives for the rounded corners*
1,1,$1+$1,$2,$3*
1,1,$1+$1,$4,$5*
1,1,$1+$1,$6,$7*
1,1,$1+$1,$8,$9*
0 Add four rect primitives between the rounded corners*
20,1,$1+$1,$2,$3,$4,$5,0*
20,1,$1+$1,$4,$5,$6,$7,0*
20,1,$1+$1,$6,$7,$8,$9,0*
20,1,$1+$1,$8,$9,$2,$3,0*%
G04 Aperture macros list end*
%TA.AperFunction,Conductor*%
%ADD10C,0.200000*%
%TD*%
%TA.AperFunction,ComponentPad*%
%ADD11C,2.108200*%
%TD*%
%TA.AperFunction,SMDPad,CuDef*%
%ADD12RoundRect,0.155000X0.212500X0.155000X-0.212500X0.155000X-0.212500X-0.155000X0.212500X-0.155000X0*%
%TD*%
%TA.AperFunction,SMDPad,CuDef*%
%ADD13RoundRect,0.160000X0.197500X0.160000X-0.197500X0.160000X-0.197500X-0.160000X0.197500X-0.160000X0*%
%TD*%
%TA.AperFunction,SMDPad,CuDef*%
%ADD14RoundRect,0.160000X-0.160000X0.222500X-0.160000X-0.222500X0.160000X-0.222500X0.160000X0.222500X0*%
%TD*%
%TA.AperFunction,SMDPad,CuDef*%
%ADD15RoundRect,0.160000X-0.197500X-0.160000X0.197500X-0.160000X0.197500X0.160000X-0.197500X0.160000X0*%
%TD*%
%TA.AperFunction,SMDPad,CuDef*%
%ADD16RoundRect,0.155000X-0.212500X-0.155000X0.212500X-0.155000X0.212500X0.155000X-0.212500X0.155000X0*%
%TD*%
%TA.AperFunction,SMDPad,CuDef*%
%ADD17RoundRect,0.160000X0.160000X-0.197500X0.160000X0.197500X-0.160000X0.197500X-0.160000X-0.197500X0*%
%TD*%
%TA.AperFunction,SMDPad,CuDef*%
%ADD18RoundRect,0.160000X-0.222500X-0.160000X0.222500X-0.160000X0.222500X0.160000X-0.222500X0.160000X0*%
%TD*%
%TA.AperFunction,SMDPad,CuDef*%
%ADD19R,0.500000X0.930000*%
%TD*%
%TA.AperFunction,SMDPad,CuDef*%
%ADD20R,0.800000X0.930000*%
%TD*%
%TA.AperFunction,ViaPad*%
%ADD21C,0.600000*%
%TD*%
%TA.AperFunction,Conductor*%
%ADD22C,0.960000*%
%TD*%
%TA.AperFunction,Conductor*%
%ADD23C,0.640000*%
%TD*%
G04 APERTURE END LIST*
%TO.N,VDD*%
D10*
X64500000Y-41000000D02*
X69500000Y-41000000D01*
X69500000Y-50000000D01*
X64500000Y-50000000D01*
X64500000Y-41000000D01*
%TA.AperFunction,Conductor*%
G36*
X64500000Y-41000000D02*
G01*
X69500000Y-41000000D01*
X69500000Y-50000000D01*
X64500000Y-50000000D01*
X64500000Y-41000000D01*
G37*
%TD.AperFunction*%
%TD*%
D11*
%TO.P,J2,5*%
%TO.N,N/C*%
X78540000Y-58710000D03*
%TO.P,J2,4*%
X78540000Y-63790000D03*
%TO.P,J2,3*%
X73460000Y-63790000D03*
%TO.P,J2,2,Ext*%
%TO.N,GND*%
X73460000Y-58710000D03*
%TO.P,J2,1,In*%
%TO.N,/Output matching netv\u00E6rk/Output*%
X76000000Y-61250000D03*
%TD*%
%TO.P,J1,1,In*%
%TO.N,/Input matching netv\u00E6rk/Input*%
X52540000Y-63250000D03*
%TO.P,J1,2,Ext*%
%TO.N,GND*%
X55080000Y-65790000D03*
%TO.P,J1,3*%
%TO.N,N/C*%
X55080000Y-60710000D03*
%TO.P,J1,4*%
X50000000Y-60710000D03*
%TO.P,J1,5*%
X50000000Y-65790000D03*
%TD*%
D12*
%TO.P,C2,1*%
%TO.N,GND*%
X68067500Y-53500000D03*
%TO.P,C2,2*%
%TO.N,VDD*%
X66932500Y-53500000D03*
%TD*%
%TO.P,C1,1*%
%TO.N,GND*%
X68067500Y-52000000D03*
%TO.P,C1,2*%
%TO.N,VDD*%
X66932500Y-52000000D03*
%TD*%
%TO.P,C3,1*%
%TO.N,GND*%
X68067500Y-55000000D03*
%TO.P,C3,2*%
%TO.N,VDD*%
X66932500Y-55000000D03*
%TD*%
D13*
%TO.P,R5,1*%
%TO.N,Net-(Q1-Pad1)*%
X63960000Y-63250000D03*
%TO.P,R5,2*%
%TO.N,Net-(C4-Pad2)*%
X62765000Y-63250000D03*
%TD*%
D14*
%TO.P,L2,1,1*%
%TO.N,Net-(L2-Pad1)*%
X66862500Y-58677500D03*
%TO.P,L2,2,2*%
%TO.N,Net-(C6-Pad1)*%
X66862500Y-59822500D03*
%TD*%
D15*
%TO.P,R6,1*%
%TO.N,Net-(C4-Pad2)*%
X62765000Y-58750000D03*
%TO.P,R6,2*%
%TO.N,Net-(L2-Pad1)*%
X63960000Y-58750000D03*
%TD*%
D16*
%TO.P,C6,1*%
%TO.N,Net-(C6-Pad1)*%
X68295000Y-61250000D03*
%TO.P,C6,2*%
%TO.N,/Biased Transistor/Output*%
X69430000Y-61250000D03*
%TD*%
D14*
%TO.P,L1,1,1*%
%TO.N,/Input matching netv\u00E6rk/Input*%
X57000000Y-63250000D03*
%TO.P,L1,2,2*%
%TO.N,GND*%
X57000000Y-64395000D03*
%TD*%
D16*
%TO.P,C5,1*%
%TO.N,/Input matching netv\u00E6rk/Input*%
X58227500Y-63250000D03*
%TO.P,C5,2*%
%TO.N,/Biased Transistor/Input*%
X59362500Y-63250000D03*
%TD*%
D17*
%TO.P,R8,1*%
%TO.N,Net-(L2-Pad1)*%
X66862500Y-57347500D03*
%TO.P,R8,2*%
%TO.N,VDD*%
X66862500Y-56152500D03*
%TD*%
D16*
%TO.P,C4,1*%
%TO.N,/Biased Transistor/Input*%
X60578750Y-63250000D03*
%TO.P,C4,2*%
%TO.N,Net-(C4-Pad2)*%
X61713750Y-63250000D03*
%TD*%
D18*
%TO.P,L3,1,1*%
%TO.N,/Biased Transistor/Output*%
X70790000Y-61250000D03*
%TO.P,L3,2,2*%
%TO.N,/Output matching netv\u00E6rk/Output*%
X71935000Y-61250000D03*
%TD*%
D19*
%TO.P,Q1,1*%
%TO.N,Net-(Q1-Pad1)*%
X65562500Y-63250000D03*
D20*
%TO.P,Q1,2*%
%TO.N,GND*%
X66712500Y-63250000D03*
D19*
%TO.P,Q1,3*%
%TO.N,Net-(C6-Pad1)*%
X66862500Y-61250000D03*
%TO.P,Q1,4*%
%TO.N,GND*%
X65562500Y-61250000D03*
%TD*%
D21*
%TO.N,GND*%
X61000000Y-66000000D03*
X69500000Y-53500000D03*
X65500000Y-54000000D03*
X67500000Y-64500000D03*
X57000000Y-60500000D03*
X69500000Y-55000000D03*
X58000000Y-66000000D03*
X65500000Y-57500000D03*
X63500000Y-64500000D03*
X61000000Y-60500000D03*
X68000000Y-60000000D03*
X61000000Y-57500000D03*
X65500000Y-52000000D03*
X72500000Y-58500000D03*
X68000000Y-62500000D03*
X72500000Y-64000000D03*
X68000000Y-56000000D03*
X69500000Y-52000000D03*
%TD*%
D22*
%TO.N,/Input matching netv\u00E6rk/Input*%
X57000000Y-63250000D02*
X52540000Y-63250000D01*
X57000000Y-63250000D02*
X58227500Y-63250000D01*
%TO.N,GND*%
X57000000Y-64395000D02*
X57000000Y-66000000D01*
%TO.N,Net-(C4-Pad2)*%
X62765000Y-58750000D02*
X62765000Y-63250000D01*
X61713750Y-63250000D02*
X62765000Y-63250000D01*
D23*
%TO.N,Net-(L2-Pad1)*%
X63960000Y-58750000D02*
X66790000Y-58750000D01*
X66862500Y-58677500D02*
X66862500Y-57347500D01*
D10*
X63862500Y-58847500D02*
X63765000Y-58750000D01*
X66790000Y-58750000D02*
X66862500Y-58677500D01*
D23*
%TO.N,VDD*%
X66932500Y-52000000D02*
X66932500Y-50067500D01*
D10*
X66862500Y-54817500D02*
X66795000Y-54750000D01*
D23*
X66932500Y-55000000D02*
X66932500Y-53500000D01*
D10*
X66862500Y-55070000D02*
X66932500Y-55000000D01*
D23*
X66862500Y-56152500D02*
X66862500Y-55070000D01*
D10*
X66932500Y-41067500D02*
X67000000Y-41000000D01*
D23*
X66932500Y-53500000D02*
X66932500Y-52000000D01*
%TO.N,Net-(C6-Pad1)*%
X66862500Y-59822500D02*
X66862500Y-61250000D01*
X66862500Y-61250000D02*
X68295000Y-61250000D01*
%TO.N,Net-(Q1-Pad1)*%
X63960000Y-63250000D02*
X65562500Y-63250000D01*
D22*
%TO.N,/Biased Transistor/Input*%
X59362500Y-63250000D02*
X60578750Y-63250000D01*
%TO.N,/Biased Transistor/Output*%
X69430000Y-61250000D02*
X70790000Y-61250000D01*
%TO.N,/Output matching netv\u00E6rk/Output*%
X71935000Y-61250000D02*
X76000000Y-61250000D01*
%TD*%
%TA.AperFunction,Conductor*%
%TO.N,GND*%
G36*
X63842539Y-41020185D02*
G01*
X63888294Y-41072989D01*
X63899500Y-41124500D01*
X63899500Y-50079056D01*
X63940423Y-50231783D01*
X63940426Y-50231790D01*
X64019475Y-50368709D01*
X64019479Y-50368714D01*
X64019480Y-50368716D01*
X64131284Y-50480520D01*
X64131286Y-50480521D01*
X64131290Y-50480524D01*
X64268209Y-50559573D01*
X64268216Y-50559577D01*
X64420943Y-50600500D01*
X64579057Y-50600500D01*
X65988000Y-50600500D01*
X66055039Y-50620185D01*
X66100794Y-50672989D01*
X66112000Y-50724500D01*
X66112000Y-51570563D01*
X66107076Y-51605158D01*
X66067425Y-51741635D01*
X66067423Y-51741647D01*
X66064500Y-51778789D01*
X66064500Y-52221190D01*
X66064501Y-52221215D01*
X66067424Y-52258358D01*
X66107076Y-52394840D01*
X66112000Y-52429435D01*
X66112000Y-53070563D01*
X66107076Y-53105158D01*
X66067425Y-53241635D01*
X66067423Y-53241647D01*
X66064500Y-53278789D01*
X66064500Y-53721190D01*
X66064501Y-53721215D01*
X66067424Y-53758358D01*
X66107076Y-53894840D01*
X66112000Y-53929435D01*
X66112000Y-54570563D01*
X66107076Y-54605158D01*
X66067425Y-54741635D01*
X66067423Y-54741647D01*
X66064500Y-54778789D01*
X66064500Y-54863859D01*
X66062117Y-54888050D01*
X66042000Y-54989183D01*
X66042000Y-56403388D01*
X66048046Y-56469926D01*
X66048048Y-56469933D01*
X66095765Y-56623066D01*
X66095767Y-56623070D01*
X66133719Y-56685851D01*
X66151555Y-56753406D01*
X66133719Y-56814149D01*
X66095767Y-56876929D01*
X66095765Y-56876933D01*
X66048048Y-57030065D01*
X66042000Y-57096621D01*
X66042000Y-57805500D01*
X66022315Y-57872539D01*
X65969511Y-57918294D01*
X65918000Y-57929500D01*
X63709111Y-57929500D01*
X63642573Y-57935546D01*
X63642566Y-57935548D01*
X63489436Y-57983264D01*
X63488103Y-57983865D01*
X63487038Y-57984012D01*
X63482270Y-57985498D01*
X63482022Y-57984704D01*
X63418890Y-57993427D01*
X63368323Y-57973890D01*
X63229447Y-57881095D01*
X63229434Y-57881088D01*
X63051005Y-57807181D01*
X63050993Y-57807178D01*
X62861574Y-57769500D01*
X62861571Y-57769500D01*
X62668429Y-57769500D01*
X62668426Y-57769500D01*
X62479006Y-57807178D01*
X62478994Y-57807181D01*
X62300565Y-57881088D01*
X62300552Y-57881095D01*
X62139968Y-57988395D01*
X62139964Y-57988398D01*
X62003398Y-58124964D01*
X62003395Y-58124968D01*
X61896095Y-58285552D01*
X61896088Y-58285565D01*
X61822181Y-58463994D01*
X61822178Y-58464006D01*
X61784500Y-58653424D01*
X61784500Y-60876000D01*
X61764815Y-60943039D01*
X61712011Y-60988794D01*
X61660500Y-61000000D01*
X56753232Y-61000000D01*
X56686193Y-60980315D01*
X56640438Y-60927511D01*
X56630494Y-60858353D01*
X56630746Y-60856679D01*
X56634600Y-60832350D01*
X56634600Y-60587650D01*
X56596320Y-60345964D01*
X56596319Y-60345960D01*
X56596319Y-60345959D01*
X56520705Y-60113243D01*
X56520703Y-60113240D01*
X56483189Y-60039613D01*
X56409613Y-59895212D01*
X56265782Y-59697246D01*
X56092754Y-59524218D01*
X55894788Y-59380387D01*
X55676759Y-59269296D01*
X55676756Y-59269294D01*
X55444038Y-59193680D01*
X55282912Y-59168160D01*
X55202350Y-59155400D01*
X54957650Y-59155400D01*
X54877088Y-59168160D01*
X54715962Y-59193680D01*
X54715959Y-59193680D01*
X54483243Y-59269294D01*
X54483240Y-59269296D01*
X54265211Y-59380387D01*
X54212012Y-59419039D01*
X54067246Y-59524218D01*
X54067244Y-59524220D01*
X54067243Y-59524220D01*
X53894220Y-59697243D01*
X53894220Y-59697244D01*
X53894218Y-59697246D01*
X53861929Y-59741688D01*
X53750387Y-59895211D01*
X53639296Y-60113240D01*
X53639294Y-60113243D01*
X53563680Y-60345959D01*
X53563680Y-60345962D01*
X53539033Y-60501575D01*
X53525400Y-60587650D01*
X53525400Y-60832350D01*
X53529241Y-60856605D01*
X53520286Y-60925897D01*
X53475289Y-60979348D01*
X53408537Y-60999987D01*
X53406768Y-61000000D01*
X51673232Y-61000000D01*
X51606193Y-60980315D01*
X51560438Y-60927511D01*
X51550494Y-60858353D01*
X51550746Y-60856679D01*
X51554600Y-60832350D01*
X51554600Y-60587650D01*
X51516320Y-60345964D01*
X51516319Y-60345960D01*
X51516319Y-60345959D01*
X51440705Y-60113243D01*
X51440703Y-60113240D01*
X51403189Y-60039613D01*
X51329613Y-59895212D01*
X51185782Y-59697246D01*
X51012754Y-59524218D01*
X50814788Y-59380387D01*
X50596759Y-59269296D01*
X50596756Y-59269294D01*
X50364038Y-59193680D01*
X50202912Y-59168160D01*
X50122350Y-59155400D01*
X49877650Y-59155400D01*
X49797088Y-59168160D01*
X49635962Y-59193680D01*
X49635959Y-59193680D01*
X49403243Y-59269294D01*
X49403240Y-59269296D01*
X49185211Y-59380387D01*
X49132012Y-59419039D01*
X48987246Y-59524218D01*
X48987244Y-59524220D01*
X48987243Y-59524220D01*
X48814220Y-59697243D01*
X48814220Y-59697244D01*
X48814218Y-59697246D01*
X48781929Y-59741688D01*
X48670387Y-59895211D01*
X48559296Y-60113240D01*
X48559294Y-60113243D01*
X48483680Y-60345959D01*
X48483680Y-60345962D01*
X48445400Y-60587650D01*
X48445400Y-60832349D01*
X48483680Y-61074037D01*
X48483680Y-61074040D01*
X48559294Y-61306756D01*
X48559296Y-61306759D01*
X48670387Y-61524788D01*
X48814218Y-61722754D01*
X48987246Y-61895782D01*
X49185212Y-62039613D01*
X49403241Y-62150704D01*
X49403243Y-62150705D01*
X49593550Y-62212539D01*
X49635964Y-62226320D01*
X49877650Y-62264600D01*
X49877651Y-62264600D01*
X50122349Y-62264600D01*
X50122350Y-62264600D01*
X50364036Y-62226320D01*
X50364039Y-62226319D01*
X50364040Y-62226319D01*
X50596756Y-62150705D01*
X50596756Y-62150704D01*
X50596759Y-62150704D01*
X50814788Y-62039613D01*
X50836715Y-62023681D01*
X50902522Y-62000202D01*
X50909601Y-62000000D01*
X51292102Y-62000000D01*
X51359141Y-62019685D01*
X51404896Y-62072489D01*
X51414840Y-62141647D01*
X51385815Y-62205203D01*
X51379783Y-62211681D01*
X51354220Y-62237243D01*
X51354220Y-62237244D01*
X51354218Y-62237246D01*
X51303409Y-62307178D01*
X51210387Y-62435211D01*
X51099296Y-62653240D01*
X51099294Y-62653243D01*
X51023680Y-62885959D01*
X51023680Y-62885962D01*
X51009544Y-62975211D01*
X50985400Y-63127650D01*
X50985400Y-63372350D01*
X50993892Y-63425964D01*
X51023680Y-63614037D01*
X51023680Y-63614040D01*
X51096346Y-63837682D01*
X51098341Y-63907523D01*
X51062261Y-63967356D01*
X50999560Y-63998184D01*
X50978415Y-64000000D01*
X50000000Y-64000000D01*
X50000000Y-64111400D01*
X49980315Y-64178439D01*
X49927511Y-64224194D01*
X49882432Y-64234000D01*
X49882513Y-64235017D01*
X49877652Y-64235399D01*
X49635962Y-64273680D01*
X49635959Y-64273680D01*
X49403243Y-64349294D01*
X49403240Y-64349296D01*
X49185211Y-64460387D01*
X49072265Y-64542447D01*
X48987246Y-64604218D01*
X48987244Y-64604220D01*
X48987243Y-64604220D01*
X48814220Y-64777243D01*
X48814220Y-64777244D01*
X48814218Y-64777246D01*
X48795685Y-64802755D01*
X48670387Y-64975211D01*
X48559296Y-65193240D01*
X48559294Y-65193243D01*
X48483680Y-65425959D01*
X48483680Y-65425962D01*
X48445400Y-65667650D01*
X48445400Y-65912349D01*
X48483680Y-66154037D01*
X48483680Y-66154040D01*
X48559294Y-66386756D01*
X48559296Y-66386759D01*
X48670387Y-66604788D01*
X48814218Y-66802754D01*
X48987246Y-66975782D01*
X49185212Y-67119613D01*
X49403241Y-67230704D01*
X49403243Y-67230705D01*
X49620311Y-67301234D01*
X49635964Y-67306320D01*
X49877650Y-67344600D01*
X49877651Y-67344600D01*
X50122349Y-67344600D01*
X50122350Y-67344600D01*
X50364036Y-67306320D01*
X50364039Y-67306319D01*
X50364040Y-67306319D01*
X50596756Y-67230705D01*
X50596756Y-67230704D01*
X50596759Y-67230704D01*
X50814788Y-67119613D01*
X51012754Y-66975782D01*
X51185782Y-66802754D01*
X51329613Y-66604788D01*
X51440704Y-66386759D01*
X51468883Y-66300034D01*
X51516319Y-66154040D01*
X51516319Y-66154039D01*
X51516320Y-66154036D01*
X51554600Y-65912350D01*
X51554600Y-65667650D01*
X51550758Y-65643394D01*
X51559714Y-65574103D01*
X51604711Y-65520652D01*
X51671463Y-65500013D01*
X51673232Y-65500000D01*
X53407274Y-65500000D01*
X53474313Y-65519685D01*
X53520068Y-65572489D01*
X53530012Y-65641647D01*
X53529747Y-65643399D01*
X53525900Y-65667686D01*
X53525900Y-65912315D01*
X53564166Y-66153919D01*
X53639761Y-66386571D01*
X53750814Y-66604526D01*
X53818609Y-66697836D01*
X53818609Y-66697837D01*
X54364076Y-66152369D01*
X54370961Y-66168989D01*
X54458522Y-66300034D01*
X54569966Y-66411478D01*
X54701011Y-66499039D01*
X54717629Y-66505922D01*
X54172161Y-67051389D01*
X54265473Y-67119185D01*
X54483428Y-67230238D01*
X54716080Y-67305833D01*
X54957685Y-67344100D01*
X55202315Y-67344100D01*
X55443919Y-67305833D01*
X55676571Y-67230238D01*
X55894526Y-67119185D01*
X55987836Y-67051389D01*
X55442369Y-66505922D01*
X55458989Y-66499039D01*
X55590034Y-66411478D01*
X55701478Y-66300034D01*
X55789039Y-66168989D01*
X55795922Y-66152369D01*
X56341389Y-66697836D01*
X56409185Y-66604526D01*
X56520238Y-66386571D01*
X56595833Y-66153919D01*
X56634100Y-65912315D01*
X56634100Y-65667686D01*
X56630253Y-65643399D01*
X56639207Y-65574106D01*
X56684202Y-65520653D01*
X56750954Y-65500013D01*
X56752726Y-65500000D01*
X63000000Y-65500000D01*
X63000000Y-64296799D01*
X63019685Y-64229760D01*
X63072489Y-64184005D01*
X63076548Y-64182238D01*
X63113706Y-64166847D01*
X63229441Y-64118908D01*
X63229446Y-64118904D01*
X63229449Y-64118903D01*
X63299359Y-64072190D01*
X63368323Y-64026109D01*
X63434998Y-64005231D01*
X63482140Y-64014912D01*
X63482269Y-64014501D01*
X63486390Y-64015785D01*
X63488113Y-64016139D01*
X63489422Y-64016727D01*
X63489431Y-64016733D01*
X63642567Y-64064452D01*
X63709119Y-64070500D01*
X63864745Y-64070499D01*
X63864753Y-64070500D01*
X63879188Y-64070500D01*
X64910949Y-64070500D01*
X64977988Y-64090185D01*
X64985260Y-64095233D01*
X65070169Y-64158796D01*
X65070171Y-64158797D01*
X65091755Y-64166847D01*
X65205017Y-64209091D01*
X65264627Y-64215500D01*
X65860372Y-64215499D01*
X65919983Y-64209091D01*
X66019882Y-64171830D01*
X66089572Y-64166847D01*
X66106547Y-64171831D01*
X66205120Y-64208596D01*
X66205127Y-64208598D01*
X66264655Y-64214999D01*
X66264672Y-64215000D01*
X66462500Y-64215000D01*
X66962500Y-64215000D01*
X67160328Y-64215000D01*
X67160344Y-64214999D01*
X67219872Y-64208598D01*
X67219879Y-64208596D01*
X67354586Y-64158354D01*
X67354593Y-64158350D01*
X67469687Y-64072190D01*
X67469690Y-64072187D01*
X67555850Y-63957093D01*
X67555854Y-63957086D01*
X67606096Y-63822379D01*
X67606098Y-63822372D01*
X67612499Y-63762844D01*
X67612500Y-63762827D01*
X67612500Y-63500000D01*
X66962500Y-63500000D01*
X66962500Y-64215000D01*
X66462500Y-64215000D01*
X66462500Y-63374000D01*
X66482185Y-63306961D01*
X66534989Y-63261206D01*
X66586500Y-63250000D01*
X66712500Y-63250000D01*
X66712500Y-63124000D01*
X66732185Y-63056961D01*
X66784989Y-63011206D01*
X66836500Y-63000000D01*
X67612500Y-63000000D01*
X67612500Y-62737172D01*
X67612499Y-62737155D01*
X67606098Y-62677627D01*
X67606096Y-62677620D01*
X67555854Y-62542913D01*
X67555850Y-62542906D01*
X67469690Y-62427813D01*
X67365184Y-62349579D01*
X67349347Y-62328423D01*
X67330663Y-62309739D01*
X67328738Y-62300892D01*
X67323313Y-62293645D01*
X67321427Y-62267286D01*
X67315811Y-62241466D01*
X67318974Y-62232983D01*
X67318329Y-62223953D01*
X67330994Y-62200758D01*
X67340228Y-62176002D01*
X67349665Y-62166564D01*
X67351814Y-62162630D01*
X67365185Y-62151045D01*
X67439741Y-62095233D01*
X67505205Y-62070816D01*
X67514051Y-62070500D01*
X68375813Y-62070500D01*
X68414109Y-62062882D01*
X68438302Y-62060499D01*
X68573690Y-62060499D01*
X68573702Y-62060499D01*
X68610858Y-62057576D01*
X68738636Y-62020453D01*
X68739598Y-62020455D01*
X68740422Y-62019947D01*
X68774490Y-62020555D01*
X68808500Y-62020652D01*
X68809630Y-62021182D01*
X68810280Y-62021194D01*
X68842118Y-62036427D01*
X68944891Y-62105098D01*
X68989696Y-62158710D01*
X69000000Y-62208200D01*
X69000000Y-63500000D01*
X71786768Y-63500000D01*
X71853807Y-63519685D01*
X71899562Y-63572489D01*
X71909506Y-63641647D01*
X71909253Y-63643320D01*
X71905400Y-63667650D01*
X71905400Y-63912350D01*
X71914112Y-63967356D01*
X71943680Y-64154037D01*
X71943680Y-64154040D01*
X72019294Y-64386756D01*
X72019296Y-64386759D01*
X72130387Y-64604788D01*
X72274218Y-64802754D01*
X72447246Y-64975782D01*
X72645212Y-65119613D01*
X72863241Y-65230704D01*
X72863243Y-65230705D01*
X73014854Y-65279966D01*
X73095964Y-65306320D01*
X73337650Y-65344600D01*
X73337651Y-65344600D01*
X73582349Y-65344600D01*
X73582350Y-65344600D01*
X73824036Y-65306320D01*
X73824039Y-65306319D01*
X73824040Y-65306319D01*
X74056756Y-65230705D01*
X74056756Y-65230704D01*
X74056759Y-65230704D01*
X74274788Y-65119613D01*
X74472754Y-64975782D01*
X74645782Y-64802754D01*
X74789613Y-64604788D01*
X74900704Y-64386759D01*
X74929934Y-64296799D01*
X74976319Y-64154040D01*
X74976319Y-64154039D01*
X74976320Y-64154036D01*
X75014600Y-63912350D01*
X75014600Y-63667650D01*
X75010758Y-63643394D01*
X75019714Y-63574103D01*
X75064711Y-63520652D01*
X75131463Y-63500013D01*
X75133232Y-63500000D01*
X76866768Y-63500000D01*
X76933807Y-63519685D01*
X76979562Y-63572489D01*
X76989506Y-63641647D01*
X76989253Y-63643320D01*
X76985400Y-63667650D01*
X76985400Y-63912350D01*
X76994112Y-63967356D01*
X77023680Y-64154037D01*
X77023680Y-64154040D01*
X77099294Y-64386756D01*
X77099296Y-64386759D01*
X77210387Y-64604788D01*
X77354218Y-64802754D01*
X77527246Y-64975782D01*
X77725212Y-65119613D01*
X77943241Y-65230704D01*
X77943243Y-65230705D01*
X78094854Y-65279966D01*
X78175964Y-65306320D01*
X78417650Y-65344600D01*
X78417651Y-65344600D01*
X78662349Y-65344600D01*
X78662350Y-65344600D01*
X78904036Y-65306320D01*
X78904039Y-65306319D01*
X78904040Y-65306319D01*
X79136756Y-65230705D01*
X79136756Y-65230704D01*
X79136759Y-65230704D01*
X79354788Y-65119613D01*
X79552754Y-64975782D01*
X79725782Y-64802754D01*
X79869613Y-64604788D01*
X79980704Y-64386759D01*
X80009934Y-64296799D01*
X80056319Y-64154040D01*
X80056319Y-64154039D01*
X80056320Y-64154036D01*
X80094600Y-63912350D01*
X80094600Y-63667650D01*
X80056320Y-63425964D01*
X80056319Y-63425960D01*
X80056319Y-63425959D01*
X79980705Y-63193243D01*
X79980703Y-63193240D01*
X79947284Y-63127650D01*
X79869613Y-62975212D01*
X79725782Y-62777246D01*
X79552754Y-62604218D01*
X79354788Y-62460387D01*
X79136759Y-62349296D01*
X79136756Y-62349294D01*
X78904038Y-62273680D01*
X78742912Y-62248160D01*
X78662350Y-62235400D01*
X78662349Y-62235400D01*
X78624000Y-62235400D01*
X78556961Y-62215715D01*
X78511206Y-62162911D01*
X78500000Y-62111400D01*
X78500000Y-60388600D01*
X78519685Y-60321561D01*
X78572489Y-60275806D01*
X78624000Y-60264600D01*
X78662349Y-60264600D01*
X78662350Y-60264600D01*
X78904036Y-60226320D01*
X78904039Y-60226319D01*
X78904040Y-60226319D01*
X79136756Y-60150705D01*
X79136756Y-60150704D01*
X79136759Y-60150704D01*
X79354788Y-60039613D01*
X79552754Y-59895782D01*
X79725782Y-59722754D01*
X79869613Y-59524788D01*
X79980704Y-59306759D01*
X80008883Y-59220034D01*
X80056319Y-59074040D01*
X80056319Y-59074039D01*
X80056320Y-59074036D01*
X80094600Y-58832350D01*
X80094600Y-58587650D01*
X80056320Y-58345964D01*
X80056319Y-58345960D01*
X80056319Y-58345959D01*
X79980705Y-58113243D01*
X79980703Y-58113240D01*
X79923495Y-58000961D01*
X79869613Y-57895212D01*
X79725782Y-57697246D01*
X79552754Y-57524218D01*
X79354788Y-57380387D01*
X79136759Y-57269296D01*
X79136756Y-57269294D01*
X78904038Y-57193680D01*
X78742912Y-57168160D01*
X78662350Y-57155400D01*
X78417650Y-57155400D01*
X78337088Y-57168160D01*
X78175962Y-57193680D01*
X78175959Y-57193680D01*
X77943243Y-57269294D01*
X77943240Y-57269296D01*
X77725211Y-57380387D01*
X77612265Y-57462447D01*
X77527246Y-57524218D01*
X77527244Y-57524220D01*
X77527243Y-57524220D01*
X77354220Y-57697243D01*
X77354220Y-57697244D01*
X77354218Y-57697246D01*
X77301722Y-57769500D01*
X77210387Y-57895211D01*
X77099296Y-58113240D01*
X77099294Y-58113243D01*
X77023680Y-58345959D01*
X77023680Y-58345962D01*
X77002986Y-58476620D01*
X76985400Y-58587650D01*
X76985400Y-58832350D01*
X76989241Y-58856605D01*
X76980286Y-58925897D01*
X76935289Y-58979348D01*
X76868537Y-58999987D01*
X76866768Y-59000000D01*
X75132726Y-59000000D01*
X75065687Y-58980315D01*
X75019932Y-58927511D01*
X75009988Y-58858353D01*
X75010253Y-58856601D01*
X75014100Y-58832313D01*
X75014100Y-58587684D01*
X74975833Y-58346080D01*
X74900238Y-58113428D01*
X74789185Y-57895473D01*
X74721389Y-57802162D01*
X74721389Y-57802161D01*
X74175922Y-58347628D01*
X74169039Y-58331011D01*
X74081478Y-58199966D01*
X73970034Y-58088522D01*
X73838989Y-58000961D01*
X73822368Y-57994076D01*
X74367837Y-57448609D01*
X74274526Y-57380814D01*
X74056571Y-57269761D01*
X73823919Y-57194166D01*
X73582315Y-57155900D01*
X73337685Y-57155900D01*
X73096080Y-57194166D01*
X72863428Y-57269761D01*
X72645469Y-57380816D01*
X72552162Y-57448607D01*
X72552161Y-57448609D01*
X73097629Y-57994077D01*
X73081011Y-58000961D01*
X72949966Y-58088522D01*
X72838522Y-58199966D01*
X72750961Y-58331011D01*
X72744077Y-58347629D01*
X72198609Y-57802161D01*
X72198607Y-57802162D01*
X72130816Y-57895469D01*
X72019761Y-58113428D01*
X71944166Y-58346080D01*
X71905900Y-58587684D01*
X71905900Y-58832313D01*
X71909747Y-58856601D01*
X71900793Y-58925894D01*
X71855798Y-58979347D01*
X71789046Y-58999987D01*
X71787274Y-59000000D01*
X69000000Y-59000000D01*
X69000000Y-60291800D01*
X68997763Y-60299417D01*
X68999033Y-60307254D01*
X68988060Y-60332461D01*
X68980315Y-60358839D01*
X68973605Y-60365669D01*
X68971147Y-60371317D01*
X68944890Y-60394902D01*
X68842119Y-60463571D01*
X68775442Y-60484449D01*
X68738635Y-60479546D01*
X68610856Y-60442423D01*
X68573710Y-60439500D01*
X68573703Y-60439500D01*
X68438301Y-60439500D01*
X68414111Y-60437118D01*
X68375812Y-60429500D01*
X68375811Y-60429500D01*
X67807000Y-60429500D01*
X67739961Y-60409815D01*
X67694206Y-60357011D01*
X67683000Y-60305500D01*
X67683000Y-59734093D01*
X67682999Y-59734075D01*
X67682999Y-59546611D01*
X67676953Y-59480073D01*
X67676952Y-59480070D01*
X67676952Y-59480067D01*
X67629233Y-59326931D01*
X67621506Y-59314150D01*
X67603670Y-59246596D01*
X67621507Y-59185849D01*
X67629233Y-59173069D01*
X67676952Y-59019933D01*
X67683000Y-58953381D01*
X67683000Y-58756558D01*
X67683000Y-57266688D01*
X67682999Y-57266684D01*
X67682999Y-57096620D01*
X67682999Y-57096619D01*
X67682999Y-57096611D01*
X67676953Y-57030073D01*
X67676952Y-57030070D01*
X67676952Y-57030067D01*
X67629233Y-56876931D01*
X67591279Y-56814149D01*
X67573444Y-56746595D01*
X67591280Y-56685850D01*
X67629232Y-56623070D01*
X67629233Y-56623069D01*
X67676952Y-56469933D01*
X67683000Y-56403381D01*
X67683000Y-56233312D01*
X67683000Y-55934000D01*
X67702685Y-55866961D01*
X67755489Y-55821206D01*
X67807000Y-55810000D01*
X67817500Y-55810000D01*
X68317500Y-55810000D01*
X68346142Y-55810000D01*
X68346157Y-55809999D01*
X68383277Y-55807078D01*
X68383283Y-55807077D01*
X68542194Y-55760908D01*
X68542197Y-55760907D01*
X68684642Y-55676666D01*
X68684650Y-55676660D01*
X68801660Y-55559650D01*
X68801666Y-55559642D01*
X68885907Y-55417197D01*
X68885909Y-55417194D01*
X68932078Y-55258281D01*
X68932730Y-55250000D01*
X68317500Y-55250000D01*
X68317500Y-55810000D01*
X67817500Y-55810000D01*
X67817500Y-54750000D01*
X68317500Y-54750000D01*
X68932730Y-54750000D01*
X68932078Y-54741718D01*
X68885909Y-54582805D01*
X68885907Y-54582802D01*
X68801666Y-54440357D01*
X68801660Y-54440349D01*
X68698992Y-54337681D01*
X68665507Y-54276358D01*
X68670491Y-54206666D01*
X68698992Y-54162319D01*
X68801660Y-54059650D01*
X68801666Y-54059642D01*
X68885907Y-53917197D01*
X68885909Y-53917194D01*
X68932078Y-53758281D01*
X68932730Y-53750000D01*
X68317500Y-53750000D01*
X68317500Y-54750000D01*
X67817500Y-54750000D01*
X67817500Y-53250000D01*
X68317500Y-53250000D01*
X68932730Y-53250000D01*
X68932078Y-53241718D01*
X68885909Y-53082805D01*
X68885907Y-53082802D01*
X68801666Y-52940357D01*
X68801660Y-52940349D01*
X68698992Y-52837681D01*
X68665507Y-52776358D01*
X68670491Y-52706666D01*
X68698992Y-52662319D01*
X68801660Y-52559650D01*
X68801666Y-52559642D01*
X68885907Y-52417197D01*
X68885909Y-52417194D01*
X68932078Y-52258281D01*
X68932730Y-52250000D01*
X68317500Y-52250000D01*
X68317500Y-53250000D01*
X67817500Y-53250000D01*
X67817500Y-51750000D01*
X68317500Y-51750000D01*
X68932730Y-51750000D01*
X68932078Y-51741718D01*
X68885909Y-51582805D01*
X68885907Y-51582802D01*
X68801666Y-51440357D01*
X68801660Y-51440349D01*
X68684650Y-51323339D01*
X68684642Y-51323333D01*
X68542197Y-51239092D01*
X68542194Y-51239091D01*
X68383283Y-51192922D01*
X68383277Y-51192921D01*
X68346157Y-51190000D01*
X68317500Y-51190000D01*
X68317500Y-51750000D01*
X67817500Y-51750000D01*
X67817500Y-51190000D01*
X67789319Y-51161819D01*
X67755834Y-51100496D01*
X67753000Y-51074138D01*
X67753000Y-50724500D01*
X67772685Y-50657461D01*
X67825489Y-50611706D01*
X67877000Y-50600500D01*
X69579055Y-50600500D01*
X69579057Y-50600500D01*
X69731784Y-50559577D01*
X69868716Y-50480520D01*
X69980520Y-50368716D01*
X70059577Y-50231784D01*
X70100500Y-50079057D01*
X70100500Y-41124500D01*
X70120185Y-41057461D01*
X70172989Y-41011706D01*
X70224500Y-41000500D01*
X80375500Y-41000500D01*
X80442539Y-41020185D01*
X80488294Y-41072989D01*
X80499500Y-41124500D01*
X80499500Y-72375500D01*
X80479815Y-72442539D01*
X80427011Y-72488294D01*
X80375500Y-72499500D01*
X48124500Y-72499500D01*
X48057461Y-72479815D01*
X48011706Y-72427011D01*
X48000500Y-72375500D01*
X48000500Y-41124500D01*
X48020185Y-41057461D01*
X48072989Y-41011706D01*
X48124500Y-41000500D01*
X63775500Y-41000500D01*
X63842539Y-41020185D01*
G37*
%TD.AperFunction*%
%TA.AperFunction,Conductor*%
G36*
X65985039Y-59590185D02*
G01*
X66030794Y-59642989D01*
X66042000Y-59694500D01*
X66042000Y-60166485D01*
X66022315Y-60233524D01*
X65969511Y-60279279D01*
X65904746Y-60289775D01*
X65860330Y-60285000D01*
X65812500Y-60285000D01*
X65812500Y-61126000D01*
X65792815Y-61193039D01*
X65740011Y-61238794D01*
X65688500Y-61250000D01*
X65562500Y-61250000D01*
X65562500Y-61376000D01*
X65542815Y-61443039D01*
X65490011Y-61488794D01*
X65438500Y-61500000D01*
X64812500Y-61500000D01*
X64812500Y-61762844D01*
X64818901Y-61822372D01*
X64818903Y-61822379D01*
X64869145Y-61957086D01*
X64869149Y-61957093D01*
X64955309Y-62072186D01*
X65059815Y-62150420D01*
X65075650Y-62171574D01*
X65094335Y-62190258D01*
X65096259Y-62199105D01*
X65101686Y-62206354D01*
X65103570Y-62232711D01*
X65109188Y-62258531D01*
X65106024Y-62267014D01*
X65106670Y-62276046D01*
X65094005Y-62299240D01*
X65084772Y-62323996D01*
X65075332Y-62333435D01*
X65073185Y-62337369D01*
X65059816Y-62348953D01*
X64985261Y-62404766D01*
X64919797Y-62429184D01*
X64910949Y-62429500D01*
X63869500Y-62429500D01*
X63802461Y-62409815D01*
X63756706Y-62357011D01*
X63745500Y-62305500D01*
X63745500Y-60737155D01*
X64812500Y-60737155D01*
X64812500Y-61000000D01*
X65312500Y-61000000D01*
X65312500Y-60285000D01*
X65264655Y-60285000D01*
X65205127Y-60291401D01*
X65205120Y-60291403D01*
X65070413Y-60341645D01*
X65070406Y-60341649D01*
X64955312Y-60427809D01*
X64955309Y-60427812D01*
X64869149Y-60542906D01*
X64869145Y-60542913D01*
X64818903Y-60677620D01*
X64818901Y-60677627D01*
X64812500Y-60737155D01*
X63745500Y-60737155D01*
X63745500Y-59694500D01*
X63765185Y-59627461D01*
X63817989Y-59581706D01*
X63869500Y-59570500D01*
X63879188Y-59570500D01*
X65918000Y-59570500D01*
X65985039Y-59590185D01*
G37*
%TD.AperFunction*%
%TD*%
M02*
